<?xml version="1.0" encoding="utf-8"?>
<!-- Generator: Adobe Illustrator 25.0.0, SVG Export Plug-In . SVG Version: 6.00 Build 0)  -->
<svg version="1.1" id="Layer_1" xmlns="http://www.w3.org/2000/svg" xmlns:xlink="http://www.w3.org/1999/xlink" x="0px" y="0px"
	 viewBox="0 0 14.2 14.2" style="enable-background:new 0 0 14.2 14.2;" xml:space="preserve">
<style type="text/css">
	.st0{fill:#FFFFFF;}
</style>
<path class="st0" d="M13.1,9.5c-0.9,0-1.9-0.1-2.8-0.4C10,9,9.8,9.1,9.6,9.2l-0.9,1.1c-0.1,0.2-0.4,0.3-0.6,0.1
	c-1.8-1-3.3-2.5-4.4-4.3C3.6,5.9,3.6,5.7,3.9,5.5l1.1-0.9c0.2-0.2,0.3-0.5,0.1-0.7C4.8,3,4.6,2.1,4.6,1.1c0.1-0.2-0.1-0.4-0.4-0.4
	l0,0H1.5c-0.4,0-0.9,0.1-0.9,0.7c0.1,6.7,5.4,12.1,12.2,12.2c0.4,0,0.7-0.4,0.7-0.8v-0.1V10C13.5,9.7,13.3,9.5,13.1,9.5L13.1,9.5z"
	/>
</svg>
