<?xml version="1.0" encoding="utf-8"?>
<!-- Generator: Adobe Illustrator 25.0.0, SVG Export Plug-In . SVG Version: 6.00 Build 0)  -->
<svg version="1.1" id="Layer_1" xmlns="http://www.w3.org/2000/svg" xmlns:xlink="http://www.w3.org/1999/xlink" x="0px" y="0px"
	 viewBox="0 0 14.2 14.2" style="enable-background:new 0 0 14.2 14.2;" xml:space="preserve">
<style type="text/css">
	.st0{fill:none;}
	.st1{fill:#FFFFFF;}
</style>
<g>
	<rect x="0.4" y="0.4" class="st0" width="13.4" height="13.4"/>
</g>
<g>
	<g>
		<path class="st1" d="M11,5.4h-0.6V2.6H4.9v8.1v0.8h7.8V7.1C12.7,6.2,11.9,5.4,11,5.4z M6,3.7h3.3v1.7H6V3.7z M8.2,9.9H6V7.1h2.2
			V9.9z M9.3,9.9C9,9.9,8.8,9.6,8.8,9.3S9,8.8,9.3,8.8S9.9,9,9.9,9.3S9.6,9.9,9.3,9.9z M9.3,8.2C9,8.2,8.8,8,8.8,7.6S9,7.1,9.3,7.1
			s0.6,0.3,0.6,0.6S9.6,8.2,9.3,8.2z M11,9.9c-0.3,0-0.6-0.3-0.6-0.6s0.3-0.6,0.6-0.6s0.6,0.3,0.6,0.6S11.3,9.9,11,9.9z M11,8.2
			c-0.3,0-0.6-0.3-0.6-0.6s0.3-0.6,0.6-0.6s0.6,0.3,0.6,0.6S11.3,8.2,11,8.2z"/>
		<path class="st1" d="M2.9,4.9c-0.8,0-1.4,0.6-1.4,1.4v4.5c0,0.8,0.6,1.4,1.4,1.4s1.4-0.6,1.4-1.4V6.2C4.3,5.5,3.7,4.9,2.9,4.9z"/>
	</g>
</g>
</svg>
