<?xml version="1.0" encoding="utf-8"?>
<!-- Generator: Adobe Illustrator 25.0.0, SVG Export Plug-In . SVG Version: 6.00 Build 0)  -->
<svg version="1.1" id="Layer_3" xmlns="http://www.w3.org/2000/svg" xmlns:xlink="http://www.w3.org/1999/xlink" x="0px" y="0px"
	 viewBox="0 0 14.2 14.2" style="enable-background:new 0 0 14.2 14.2;" xml:space="preserve">
<style type="text/css">
	.st0{fill:#FFFFFF;}
</style>
<path class="st0" d="M7.1,0.3C4.5,0.3,2.4,2.4,2.4,5c0,0,0,0,0,0c0,2.8,3,7.1,4.2,8.7c0.2,0.3,0.6,0.3,0.9,0.1c0,0,0.1-0.1,0.1-0.1
	C8.8,12,11.8,7.8,11.8,5C11.8,2.4,9.7,0.3,7.1,0.3C7.1,0.3,7.1,0.3,7.1,0.3z M7.1,6.7C6.2,6.7,5.4,5.9,5.4,5c0-0.9,0.8-1.7,1.7-1.7
	C8,3.3,8.8,4,8.8,5c0,0,0,0,0,0C8.8,5.9,8,6.7,7.1,6.7L7.1,6.7z"/>
</svg>
