<?xml version="1.0" encoding="utf-8"?>
<!-- Generator: Adobe Illustrator 25.0.0, SVG Export Plug-In . SVG Version: 6.00 Build 0)  -->
<svg version="1.1" id="Layer_1" xmlns="http://www.w3.org/2000/svg" xmlns:xlink="http://www.w3.org/1999/xlink" x="0px" y="0px"
	 viewBox="0 0 14.2 14.2" style="enable-background:new 0 0 14.2 14.2;" xml:space="preserve">
<style type="text/css">
	.st0{fill:none;}
	.st1{fill:#FFFFFF;}
</style>
<path class="st0" d="M-0.3-0.3h14.9v14.9H-0.3V-0.3z"/>
<path class="st1" d="M11.4,4.6H2.8c-1,0-1.9,0.8-1.9,1.9v3.7h2.5v2.5h7.4v-2.5h2.5V6.5C13.3,5.4,12.5,4.6,11.4,4.6z M9.6,11.4h-5
	V8.3h5V11.4z M11.4,7.1c-0.3,0-0.6-0.3-0.6-0.6c0-0.3,0.3-0.6,0.6-0.6c0.3,0,0.6,0.3,0.6,0.6C12,6.8,11.8,7.1,11.4,7.1z M10.8,1.5
	H3.4V4h7.4V1.5z"/>
</svg>
