<?xml version="1.0" encoding="utf-8"?>
<!-- Generator: Adobe Illustrator 25.0.0, SVG Export Plug-In . SVG Version: 6.00 Build 0)  -->
<svg version="1.1" id="Layer_1" xmlns="http://www.w3.org/2000/svg" xmlns:xlink="http://www.w3.org/1999/xlink" x="0px" y="0px"
	 viewBox="0 0 77.9 23.2" style="enable-background:new 0 0 77.9 23.2;" xml:space="preserve">
<style type="text/css">
	.st0{fill:#FFFFFF;}
	.st1{fill:url(#SVGID_1_);}
	.st2{fill:#575756;}
</style>
<g id="Layer_11_copy_2">
	<polygon class="st0" points="6.1,9.8 4.6,9.8 4.9,9 6.4,9 	"/>
	<polygon class="st0" points="8,12.8 4.3,12.8 4.6,12 8.3,12 	"/>
	<polygon class="st0" points="3,14.2 0,14.2 0.3,13.5 3.3,13.5 	"/>
	<polygon class="st0" points="7.7,15.8 4,15.8 4.2,15 8,15 	"/>
	<polygon class="st0" points="6.4,17.2 1.2,17.2 1.4,16.5 6.7,16.5 	"/>
	
		<linearGradient id="SVGID_1_" gradientUnits="userSpaceOnUse" x1="2.9" y1="12.2398" x2="60.3384" y2="12.2398" gradientTransform="matrix(1 0 0 -1 0 23.8898)">
		<stop  offset="8.196773e-02" style="stop-color:#FFFFFF"/>
		<stop  offset="0.2041" style="stop-color:#FCFCFC"/>
		<stop  offset="0.3028" style="stop-color:#F2F2F2"/>
		<stop  offset="0.3933" style="stop-color:#E1E1E1"/>
		<stop  offset="0.4788" style="stop-color:#C9C9C9"/>
		<stop  offset="0.5602" style="stop-color:#AAAAAA"/>
		<stop  offset="0.6352" style="stop-color:#878787"/>
	</linearGradient>
	<path class="st1" d="M34,5.2h-2.3L32,4.4h2.2L34,5.2z M33.5,6.8h-2.2L31.5,6h2.3L33.5,6.8z M32.9,8.2h-2.3L31,7.5h2.2L32.9,8.2z
		 M32.4,9.8h-2.3L30.4,9h2.3L32.4,9.8z M31.9,11.2h-2.3l0.3-0.8h2.3L31.9,11.2z M31.3,12.8H29l0.3-0.8h2.3L31.3,12.8z M29.8,18
		c0.1,0.3,0.2,0.5,0.4,0.8H27c0-0.3,0.1-0.5,0.2-0.8H29.8z M27.7,16.5H30l-0.1,0.3c0,0.1-0.1,0.3-0.1,0.4h-2.3L27.7,16.5z M28.2,15
		h2.3l-0.3,0.8H28L28.2,15z M31,13.5l-0.3,0.8h-2.3l0.3-0.8H31z M48.5,15l-2,5.6c-0.6,1.6-2.1,2.6-3.8,2.6H30.9
		c-0.8,0-1.7-0.3-2.3-0.8h4.2c1.5,0,7.1-0.4,7.1-0.4s-5-0.4-6.8-0.4h-5.3c-0.2-0.2-0.3-0.5-0.5-0.8h7c2.2,0,7.6-0.4,7.6-0.4
		S36.2,20,34.5,20H27c0,0,0-0.2-0.1-0.5h15.5c0.8,0,1.6-0.5,1.9-1.3l1.1-3.2C45.4,15,48.5,15,48.5,15z M14.8,5.2h-7l0.3-0.8h7.5
		C15.2,4.7,15,5,14.8,5.2z M14,6.8H7.2L7.5,6h6.8c-0.1,0.1-0.1,0.2-0.2,0.4L14,6.8z M13.4,8.2H6.7L7,7.5h6.7L13.4,8.2z M12.9,9.8
		H8.4L8.7,9h4.5L12.9,9.8z M12.3,11.2h-6l0.3-0.8h6L12.3,11.2z M11.8,12.8h-3L9.1,12h3L11.8,12.8z M11.2,14.2H6l0.3-0.8h5.2
		L11.2,14.2z M10.7,15.8H9.2L9.5,15H11L10.7,15.8z M10.1,17.2H7.9l0.3-0.8h2.2L10.1,17.2z M9.7,18.8H3c0-0.3,0.1-0.5,0.2-0.8h6.7
		l-0.1,0.3C9.7,18.5,9.7,18.6,9.7,18.8z M10.1,20.2h-7C3,20,3,19.8,2.9,19.5h6.8C9.8,19.8,9.9,20,10.1,20.2z M4.6,22.5H21
		c-0.7,0.5-1.5,0.8-2.3,0.8H6.9C6.1,23.3,5.3,23,4.6,22.5z M22.3,21c-0.1,0.3-0.3,0.5-0.5,0.8h-18c-0.2-0.2-0.3-0.5-0.5-0.8H22.3z
		 M22.9,19.5l-0.3,0.8h-3c0.3-0.2,0.6-0.5,0.8-0.8H22.9z M23.4,18l-0.3,0.8h-2.3c0.1-0.1,0.1-0.2,0.2-0.4l0.1-0.4H23.4z M23.9,16.5
		l-0.3,0.8h-2.2l0.3-0.8H23.9z M60.2,3.3L53,23.2h-3.8L55.9,5c0.2-0.5-0.1-1-0.6-1.2c-0.1,0-0.2-0.1-0.3-0.1H8.3
		C8.4,3.5,8.6,3.2,8.7,3h30.4c4.8,0,10.2-0.3,10.2-0.3s-4.1-0.4-8.4-0.4H9.2C9.4,2,9.7,1.7,9.9,1.5h29.2c5.9,0,12.2-0.4,12.2-0.4
		s-6.2-0.4-9.5-0.4H11C11.9,0.3,12.9,0,13.9,0h44c1.4,0,2.5,1.1,2.5,2.5C60.4,2.8,60.3,3,60.2,3.3z"/>
	<g>
		<path class="st2" d="M71.2,0L68,9h-7.5l-1.7,4.5h7.5l-3.6,9.8h4c1.7,0,3.2-1,3.8-2.6L77.9,0H71.2z M73.8,3l-0.4,1.1h-0.8L73.1,3
			H72l0.3-0.8h1.1l0.4-1.1h0.8l-0.4,1.1h1.1L75,3H73.8z"/>
	</g>
</g>
</svg>
