<?xml version="1.0" encoding="utf-8"?>
<!-- Generator: Adobe Illustrator 25.0.0, SVG Export Plug-In . SVG Version: 6.00 Build 0)  -->
<svg version="1.1" id="Layer_1" xmlns="http://www.w3.org/2000/svg" xmlns:xlink="http://www.w3.org/1999/xlink" x="0px" y="0px"
	 viewBox="0 0 80.3 23.9" style="enable-background:new 0 0 80.3 23.9;" xml:space="preserve">
<style type="text/css">
	.st0{fill:#F0BC1F;}
</style>
<g id="Layer_2_1_">
	<g id="Layer_11_copy_2">
		<polygon class="st0" points="36.3,5.5 34.1,5.5 34.4,4.8 36.6,4.8 		"/>
		<polygon class="st0" points="35.8,7.1 33.5,7.1 33.8,6.3 36.1,6.3 		"/>
		<polygon class="st0" points="35.3,8.5 33,8.5 33.3,7.8 35.5,7.8 		"/>
		<polygon class="st0" points="34.7,10.1 32.5,10.1 32.7,9.3 35,9.3 		"/>
		<polygon class="st0" points="34.2,11.5 31.9,11.5 32.2,10.8 34.4,10.8 		"/>
		<polygon class="st0" points="33.6,13.1 31.4,13.1 31.6,12.3 33.9,12.3 		"/>
		<path class="st0" d="M32.1,18.3c0.1,0.3,0.2,0.5,0.4,0.8h-3.2c0-0.3,0.1-0.5,0.2-0.8H32.1z"/>
		<path class="st0" d="M30,16.8h2.3l-0.1,0.3c0,0.1-0.1,0.3-0.1,0.4h-2.3L30,16.8z"/>
		<polygon class="st0" points="30.5,15.3 32.8,15.3 32.5,16.1 30.3,16.1 		"/>
		<polygon class="st0" points="33.4,13.8 33.1,14.5 30.8,14.5 31.1,13.8 		"/>
		<path class="st0" d="M50.8,15.3l-2,5.6c-0.6,1.6-2.1,2.6-3.8,2.6H33.3c-0.8,0-1.7-0.3-2.3-0.8h4.2c1.5,0,7.1-0.4,7.1-0.4
			s-5-0.4-6.8-0.4h-5.3c-0.2-0.2-0.3-0.5-0.5-0.8h7c2.2,0,7.6-0.4,7.6-0.4s-5.7-0.4-7.4-0.4h-7.5c-0.1-0.2-0.1-0.5-0.1-0.8h15.5
			c0.8,0,1.6-0.5,1.9-1.3l1.1-3.2h3C50.8,15,50.8,15.3,50.8,15.3z"/>
		<path class="st0" d="M17.1,5.5h-7l0.3-0.8h7.5C17.6,5,17.3,5.3,17.1,5.5z"/>
		<path class="st0" d="M16.3,7.1H9.5l0.3-0.8h6.8c-0.1,0.1-0.1,0.2-0.2,0.4L16.3,7.1z"/>
		<polygon class="st0" points="15.8,8.5 9,8.5 9.3,7.8 16,7.8 		"/>
		<polygon class="st0" points="15.2,10.1 10.7,10.1 11,9.3 15.5,9.3 		"/>
		<polygon class="st0" points="8.5,10.1 6.1,10.1 6.4,9.3 8.7,9.3 		"/>
		<polygon class="st0" points="14.7,11.5 8.7,11.5 8.9,10.8 14.9,10.8 		"/>
		<polygon class="st0" points="14.1,13.1 11.1,13.1 11.4,12.3 14.4,12.3 		"/>
		<polygon class="st0" points="10.3,13.1 6.6,13.1 6.9,12.3 10.6,12.3 		"/>
		<polygon class="st0" points="13.5,14.5 8.3,14.5 8.6,13.8 13.8,13.8 		"/>
		<polygon class="st0" points="4.8,14.5 0.8,14.5 1.1,13.8 5.1,13.8 		"/>
		<polygon class="st0" points="13,16.1 11.5,16.1 11.8,15.3 13.3,15.3 		"/>
		<polygon class="st0" points="10,16.1 6.3,16.1 6.5,15.3 10.3,15.3 		"/>
		<polygon class="st0" points="12.5,17.5 10.2,17.5 10.5,16.8 12.7,16.8 		"/>
		<polygon class="st0" points="8.7,17.5 2.3,17.5 2.6,16.8 9,16.8 		"/>
		<path class="st0" d="M12,19.1H5.3c0-0.3,0.1-0.5,0.2-0.8h6.7l-0.1,0.3C12,18.8,12,18.9,12,19.1z"/>
		<path class="st0" d="M12.4,20.5h-7c-0.1-0.2-0.1-0.5-0.1-0.8H12C12.1,20.1,12.2,20.3,12.4,20.5z"/>
		<path class="st0" d="M6.9,22.8h16.4c-0.7,0.5-1.5,0.8-2.3,0.8H9.3C8.4,23.6,7.6,23.3,6.9,22.8z"/>
		<path class="st0" d="M24.6,21.3c-0.1,0.3-0.3,0.5-0.5,0.8h-18c-0.2-0.2-0.3-0.5-0.5-0.8H24.6z"/>
		<path class="st0" d="M25.2,19.8l-0.3,0.8h-3c0.3-0.2,0.6-0.5,0.8-0.8H25.2z"/>
		<path class="st0" d="M25.7,18.3l-0.3,0.8h-2.3c0.1-0.1,0.1-0.2,0.2-0.4l0.1-0.4H25.7z"/>
		<polygon class="st0" points="26.2,16.8 26,17.5 23.7,17.5 24,16.8 		"/>
		<path class="st0" d="M62.5,3.6l-7.2,19.9h-3.8l6.7-18.2c0.2-0.5-0.1-1-0.6-1.2c-0.1,0-0.2-0.1-0.3-0.1H10.6
			c0.1-0.2,0.3-0.5,0.4-0.7h30.4C46.2,3.3,51.6,3,51.6,3s-4.1-0.4-8.4-0.4H11.5C11.7,2.3,12,2,12.2,1.8h29.2
			c5.9,0,12.2-0.4,12.2-0.4S47.4,1,44.1,1H13.3c0.9-0.4,1.9-0.7,2.9-0.7h44c1.4,0,2.5,1.1,2.5,2.5C62.7,3.1,62.6,3.3,62.5,3.6z"/>
		<path class="st0" d="M73.5,0.3l-3.2,9h-7.5l-1.7,4.5h7.5L65,23.5h4c1.7,0,3.2-1.1,3.8-2.6l7.5-20.6C80.3,0.3,73.5,0.3,73.5,0.3z
			 M76.2,3.3l-0.4,1.1H75l0.4-1.1h-1.1l0.3-0.8h1.1l0.4-1.1h0.8l-0.4,1.1h1.1l-0.3,0.8C77.3,3.3,76.2,3.3,76.2,3.3z"/>
	</g>
</g>
</svg>
