<?xml version="1.0" encoding="utf-8"?>
<!-- Generator: Adobe Illustrator 25.0.0, SVG Export Plug-In . SVG Version: 6.00 Build 0)  -->
<svg version="1.1" xmlns="http://www.w3.org/2000/svg" xmlns:xlink="http://www.w3.org/1999/xlink" x="0px" y="0px"
	 viewBox="0 0 425.2 425.2" style="enable-background:new 0 0 425.2 425.2;" xml:space="preserve">
<style type="text/css">
	.st0{fill:none;stroke:#000000;stroke-width:10;stroke-miterlimit:10;}
	.st1{fill:none;stroke:#000000;stroke-width:6;stroke-miterlimit:10;}
	.st2{fill:none;stroke:#000000;stroke-width:8;stroke-miterlimit:10;}
	.st3{display:none;}
</style>
<g id="Layer_2">
	<g id="Layer_3_1_">
		<path class="st0" d="M316.6,360.6H108.4c-4.3,0-7.8-3.5-7.8-7.8V60.6c0-4.3,3.5-7.8,7.8-7.8h208.2c4.3,0,7.8,3.5,7.8,7.8v292.2
			C324.5,357,320.9,360.6,316.6,360.6z"/>
		<path class="st0" d="M256.7,84.3h43.3c4.3,0,7.8,3.5,7.8,7.8v207l-44.9,44.3H129.4c-4.3,0-7.8-3.5-7.8-7.8V92.2
			c0-4.3,3.5-7.8,7.8-7.8h38.9"/>
		<path class="st0" d="M213.7,84.3"/>
		<path class="st0" d="M256.7,88.3c0,10.3-19.3,18.8-43.3,19c-24.9,0.2-45.1-8.6-45.1-19.3V74.6c0,0,0,0,0.1,0h88.3h0.1L256.7,88.3z
			"/>
		<path class="st0" d="M177.3,324.1h-27.8c-2.5,0-4.4-2-4.4-4.4v-27.8c0-2.5,2-4.4,4.4-4.4h27.8c2.5,0,4.4,2,4.4,4.4v27.8
			C181.8,322.1,179.8,324.1,177.3,324.1z"/>
		<path class="st0" d="M177.3,270.7h-27.8c-2.5,0-4.4-2-4.4-4.4v-27.8c0-2.5,2-4.4,4.4-4.4h27.8c2.5,0,4.4,2,4.4,4.4v27.8
			C181.8,268.7,179.8,270.7,177.3,270.7z"/>
		<path class="st0" d="M242.8,126l11.5,11.4c0.4,0.4,0.7,0.8,0.9,1.3c0.7,1.3,1,2.7,1,4.2v66.5c0,1.6-1.2,2.8-2.8,2.8h-81.7
			c-1.6,0-2.8-1.2-2.8-2.8v-66.6c0-1.2,0.2-2.4,0.7-3.4c0.3-0.8,0.8-1.6,1.6-2.3l11.2-11c2.3-2.2,3.1-2.9,5.3-2.9h50
			C239.6,123.1,240.5,123.9,242.8,126z"/>
		<line class="st0" x1="168.8" y1="142.1" x2="256.2" y2="142.1"/>
		<path class="st1" d="M198.5,212.1v-22.3c0-0.3,0.4-0.4,0.5-0.2l5.2,7.2c0.1,0.2,0.4,0.2,0.5,0l7.3-7.3c0.3-0.3,0.8-0.3,1,0
			l7.3,7.3c0.1,0.2,0.4,0.2,0.5,0l5.2-7.2c0.2-0.3,0.5-0.1,0.5,0.2v22.3H198.5z"/>
		<path class="st1" d="M227.7,142.1v22.4c0,0.3-0.3,0.4-0.5,0.1l-5.3-7.3c-0.1-0.1-0.3-0.1-0.5,0l-7.3,9.7c-0.3,0.4-0.9,0.4-1.2,0
			l-7.3-9.7c-0.1-0.1-0.3-0.1-0.5,0l-5.3,7.3c-0.1,0.2-0.5,0.1-0.5-0.1v-22.4l6.5-19h16.3L227.7,142.1z"/>
		<path class="st2" d="M153.5,242.1l4.2,14.2c1.4,2.2,4.5,2.5,6.3,0.6l20.2-30.8"/>
		<path class="st2" d="M153.5,296.3l4.2,14.2c1.4,2.2,4.5,2.5,6.3,0.6l20.2-30.8"/>
		<path class="st0" d="M307.8,299.2l-35,0.2c-5.5,0-9.9,4.5-9.9,10v34.1"/>
		<line class="st0" x1="193.2" y1="249.6" x2="291.7" y2="249.6"/>
		<line class="st0" x1="193.2" y1="303.1" x2="242.5" y2="303.1"/>
		<line class="st0" x1="193.2" y1="262.1" x2="279" y2="262.1"/>
		<line class="st0" x1="193.2" y1="316.6" x2="251.5" y2="316.6"/>
		<line class="st0" x1="189" y1="84.3" x2="240.4" y2="84.3"/>
	</g>
</g>
<g id="Layer_4" class="st3">
</g>
</svg>
