<?xml version="1.0" encoding="utf-8"?>
<!-- Generator: Adobe Illustrator 25.0.0, SVG Export Plug-In . SVG Version: 6.00 Build 0)  -->
<svg version="1.1" id="Layer_1" xmlns="http://www.w3.org/2000/svg" xmlns:xlink="http://www.w3.org/1999/xlink" x="0px" y="0px"
	 viewBox="0 0 50 50" style="enable-background:new 0 0 50 50;" xml:space="preserve">
<style type="text/css">
	.st0{display:none;}
	.st1{display:none;opacity:0.32;}
	.st2{fill:#FFFFFF;}
	.st3{fill:none;stroke:#FFFFFF;stroke-miterlimit:10;}
</style>
<g id="Layer_1_1_" class="st0">
</g>
<g id="Layer_2_1_" class="st1">
	
		<image style="display:inline;overflow:visible;enable-background:new    ;" width="512" height="512" xlink:href="../../../../../Downloads/54c5fa1d2851fa3c8b8d0b41b35485af.jpg"  transform="matrix(7.798695e-02 0 0 7.798695e-02 5.0353 5.0353)">
	</image>
</g>
<g id="Layer_3">
	<path class="st2" d="M45.3,24.5c-8.1,1-13.5,5.2-14.8,14.4c0,0.3-0.4,0.3-0.4,0c-1.2-9.1-6.7-13.3-14.8-14.4c-0.3,0-0.3-0.4,0-0.4
		c8.1-1,13.5-5.2,14.8-14.4c0-0.3,0.4-0.3,0.4,0c1.2,9.1,6.7,13.3,14.8,14.4C45.6,24.1,45.6,24.5,45.3,24.5z"/>
	<path class="st3" d="M23.4,35.8c-2.8,0.4-4.7,1.8-5.1,5c0,0.1-0.2,0.1-0.2,0c-0.4-3.2-2.3-4.6-5.1-5c-0.1,0-0.1-0.1,0-0.1
		c2.8-0.4,4.7-1.8,5.1-5c0-0.1,0.2-0.1,0.2,0C18.7,33.9,20.6,35.3,23.4,35.8C23.5,35.7,23.5,35.8,23.4,35.8z"/>
	<path class="st2" d="M19.1,14.9c-3.9,0.5-6.6,2.5-7.2,7c0,0.1-0.2,0.1-0.2,0c-0.6-4.4-3.2-6.5-7.2-7c-0.1,0-0.1-0.2,0-0.2
		c3.9-0.5,6.6-2.5,7.2-7c0-0.1,0.2-0.1,0.2,0c0.6,4.4,3.2,6.5,7.2,7C19.2,14.7,19.2,14.9,19.1,14.9z"/>
</g>
</svg>
