<?xml version="1.0" encoding="utf-8"?>
<!-- Generator: Adobe Illustrator 25.0.0, SVG Export Plug-In . SVG Version: 6.00 Build 0)  -->
<svg version="1.1" xmlns="http://www.w3.org/2000/svg" xmlns:xlink="http://www.w3.org/1999/xlink" x="0px" y="0px"
	 viewBox="0 0 50 50" style="enable-background:new 0 0 50 50;" xml:space="preserve">
<style type="text/css">
	.st0{display:none;opacity:0.27;}
	.st1{display:inline;fill:#FFFFFF;}
	.st2{display:none;}
	.st3{fill:#FFFFFF;}
	.st4{display:inline;fill:#1D1D1B;}
</style>
<g id="Layer_1">
	<g id="Layer_1_1_" class="st0">
		<path class="st1" d="M28.7,5.5c1.4,0,2.5,1.1,2.5,2.5s-1.1,2.5-2.5,2.5h-1.2v2.7c2.9,0.4,5.6,1.7,7.8,3.5L37,15c1-1,2.6-1,3.5,0
			c1,1,1,2.6,0,3.5l-1.9,1.9c1.7,2.5,2.6,5.6,2.6,8.8c0,9-7.3,16.2-16.2,16.2S8.8,38.2,8.8,29.2c0-8.1,6-14.8,13.7-16v-2.7h-1.2
			c-1.4,0-2.5-1.1-2.5-2.5s1.1-2.5,2.5-2.5C21.3,5.5,28.7,5.5,28.7,5.5z M26.9,20.5c0-1-0.8-1.9-1.9-1.9s-1.9,0.8-1.9,1.9v10
			c0,1,0.8,1.9,1.9,1.9s1.9-0.8,1.9-1.9V20.5z"/>
	</g>
	<g id="Layer_2_1_" class="st2">
	</g>
	<g id="Layer_3">
		<path class="st3" d="M38.7,19.4l0.9-0.8c0.8-0.7,0.8-1.9,0.2-2.6L39,15.1c-0.7-0.8-1.9-0.8-2.6-0.2l-0.8,0.7
			c-1.7-1.5-3.8-2.6-6-3.2v-0.9h2.7c0.5,0,0.9-0.4,0.9-0.9V8.1c0-0.5-0.4-0.9-0.9-0.9H17.8c-0.5,0-0.9,0.4-0.9,0.9v2.5
			c0,0.5,0.4,0.9,0.9,0.9h2.7v0.9c-6.7,2-11.7,8.2-11.7,15.6c0,8.9,7.2,16.2,16.2,16.2S41.2,36.9,41.2,28
			C41.2,24.8,40.3,21.9,38.7,19.4z M25.8,25.1c0,0.4-0.3,0.8-0.8,0.8s-0.8-0.3-0.8-0.8v-8.7c0-0.4,0.3-0.8,0.8-0.8s0.8,0.3,0.8,0.8
			V25.1z"/>
	</g>
</g>
<g id="Layer_2" class="st2">
	<rect x="15.3" y="9.9" class="st4" width="19.3" height="1"/>
</g>
</svg>
