<?xml version="1.0" encoding="utf-8"?>
<!-- Generator: Adobe Illustrator 25.0.0, SVG Export Plug-In . SVG Version: 6.00 Build 0)  -->
<svg version="1.1" xmlns="http://www.w3.org/2000/svg" xmlns:xlink="http://www.w3.org/1999/xlink" x="0px" y="0px"
	 viewBox="0 0 425.2 425.2" style="enable-background:new 0 0 425.2 425.2;" xml:space="preserve">
<style type="text/css">
	.st0{fill:none;stroke:#000000;stroke-width:10;stroke-miterlimit:10;}
	.st1{opacity:0.18;enable-background:new    ;}
	.st2{fill:none;stroke:#000000;stroke-width:11;stroke-linecap:round;stroke-miterlimit:10;}
	.st3{fill:none;}
	.st4{stroke:#000000;stroke-width:4;stroke-miterlimit:10;}
	.st5{font-family:'SimHei';}
	.st6{font-size:73.5887px;}
	.st7{fill:none;stroke:#000000;stroke-width:8;stroke-miterlimit:10;}
	.st8{display:none;}
</style>
<g id="Layer_3">
	<path class="st0" d="M102.7,188.6v-109c0-5.7,4.6-10.3,10.3-10.3h189.7c5.7,0,10.3,4.6,10.3,10.3v57.9"/>
	<path class="st0" d="M312.9,272v44.7c0,5.7-4.6,10.3-10.3,10.3H184.5"/>
	<path class="st1" d="M333.3,146.9c-0.8-0.2-1.5-0.3-2.4-0.5s-1.7-0.3-2.5-0.3C330.1,146.2,331.8,146.6,333.3,146.9L333.3,146.9z
		 M313.8,271.3c2.2,0.2,4.6,0.3,6.8,0.3c2.7,0,5.3-0.2,7.8-0.5l0,0c-2.7,0.3-5.3,0.5-7.8,0.5C318.3,271.6,316,271.5,313.8,271.3z
		 M328.4,137.9v-0.2c-2.5-0.3-5.1-0.5-7.8-0.5c-2.5,0-5.1,0.2-7.5,0.3l0,0c2.5-0.3,5.1-0.3,7.6-0.3S325.8,137.6,328.4,137.9z
		 M310.4,146.4c-0.2,0-0.2,0-0.3,0c-0.7,0.2-1.4,0.3-2,0.3c-0.3,0-0.7,0.2-0.8,0.2c-0.2,0-0.3,0-0.5,0.2c-0.7,0.2-1.2,0.3-1.7,0.5
		c-0.8,0.2-1.5,0.5-2.4,0.7c-0.8,0.3-1.9,0.7-2.7,1c-0.2,0-0.3,0.2-0.5,0.2c4.2-1.7,8.8-2.9,13.6-3.4h-0.2
		C311.9,146.1,311.1,146.2,310.4,146.4z M297.5,150.1c-2.4,1-4.8,2.2-7,3.6c-0.2,0.2-0.3,0.2-0.5,0.3c-0.5,0.3-1,0.5-1.4,0.8
		c3.2-2,6.8-3.9,10.4-5.3C298.5,149.8,298,150,297.5,150.1L297.5,150.1z"/>
	<path d="M162.6,199.1H67c-6.8,0-12.3,5.5-12.3,12.3v121.9c0,6.8,5.6,12.3,12.3,12.3h95.6c6.8,0,12.3-5.5,12.3-12.3V211.4
		C174.9,204.6,169.4,199.1,162.6,199.1z M99.5,321.2H89v10.5c0,2.2-1.8,4-4,4c-2.2,0-4-1.8-4-4v-10.5H70.5c-2.2,0-4-1.8-4-4
		c0-2.2,1.8-4,4-4H81v-10.5c0-2.2,1.8-4,4-4c2.2,0,4,1.8,4,4v10.5h10.5c2.2,0,4,1.8,4,4C103.5,319.4,101.7,321.2,99.5,321.2z
		 M72,264.4c-1.6-1.6-1.6-4.1,0-5.7c1.6-1.6,4.1-1.6,5.6,0l7.4,7.4l7.4-7.4c1.6-1.6,4.1-1.6,5.6,0s1.6,4.1,0,5.7l-7.4,7.4l7.4,7.4
		c1.6,1.6,1.6,4.1,0,5.7c-0.8,0.8-1.8,1.2-2.8,1.2c-1,0-2-0.4-2.8-1.2l-7.4-7.4l-7.4,7.4c-0.8,0.8-1.8,1.2-2.8,1.2
		c-1,0-2-0.4-2.8-1.2c-1.6-1.6-1.6-4.1,0-5.7l7.4-7.4L72,264.4z M152.1,321.2h-29c-2.2,0-4-1.8-4-4c0-2.2,1.8-4,4-4h29
		c2.2,0,4,1.8,4,4C156.1,319.4,154.3,321.2,152.1,321.2z M152.1,285h-29c-2.2,0-4-1.8-4-4c0-2.2,1.8-4,4-4h29c2.2,0,4,1.8,4,4
		C156.1,283.3,154.3,285,152.1,285z M152.1,269.9h-29c-2.2,0-4-1.8-4-4c0-2.2,1.8-4,4-4h29c2.2,0,4,1.8,4,4
		C156.1,268.1,154.3,269.9,152.1,269.9z M163.7,217.6l-1.2,17c-0.2,3.1-2.1,5.4-4.3,5.4H71.4c-2.2,0-4.1-2.3-4.4-5.4l-1.2-17
		c-0.2-3.5,1.8-6.5,4.4-6.5h89.2C162,211.1,164,214.1,163.7,217.6z"/>
	<line class="st2" x1="138" y1="124.9" x2="282.1" y2="124.9"/>
	<path d="M264.6,158.5c-3.2,3.3-6.1,7-8.6,11H138c-3,0-5.5-2.5-5.5-5.5c0-3,2.5-5.5,5.5-5.5H264.6z"/>
	<path class="st3" d="M379.9,204.9c0,37-30,67-67,67s-67-30-67-67c0-13,3.7-25.2,10.1-35.4c2.5-4,5.4-7.7,8.6-11
		c12.2-12.7,29.3-20.6,48.3-20.6C349.9,137.9,379.9,167.9,379.9,204.9z"/>
	<circle class="st0" cx="312.9" cy="204.9" r="53.3"/>
	<text transform="matrix(1 0 0 1 295.2272 228.6263)" class="st4 st5 st6">S</text>
	<line class="st7" x1="312.9" y1="183.4" x2="312.9" y2="168.8"/>
	<line class="st7" x1="312.9" y1="238" x2="312.9" y2="224.2"/>
</g>
<g id="Layer_4" class="st8">
</g>
</svg>
