<?xml version="1.0" encoding="utf-8"?>
<!-- Generator: Adobe Illustrator 25.0.0, SVG Export Plug-In . SVG Version: 6.00 Build 0)  -->
<svg version="1.1" xmlns="http://www.w3.org/2000/svg" xmlns:xlink="http://www.w3.org/1999/xlink" x="0px" y="0px"
	 viewBox="0 0 512 512" style="enable-background:new 0 0 512 512;" xml:space="preserve">
<style type="text/css">
	.st0{fill:none;stroke:#000000;stroke-width:4;stroke-miterlimit:10;}
	.st1{fill:none;stroke:#000000;stroke-width:6;stroke-miterlimit:10;}
	.st2{display:none;}
	.st3{display:inline;}
</style>
<g id="Layer_1">
	<g id="Solid">
		<rect x="423.4" y="246.2" width="33.3" height="43.8"/>
		<polygon class="st0" points="464,248 464,296 416,296 416,248 352,248 352,336 480,336 480,248 		"/>
		<path class="st1" d="M111.2,217H45.6c-2.9,0-5.2,2.5-5.2,5.6v107.8c0,3.1,2.3,5.6,5.2,5.6h65.6c2.9,0,5.2-2.5,5.2-5.6V222.6
			C116.4,219.5,114.1,217,111.2,217z"/>
		<polygon class="st0" points="354,241 478,241 468.1,217 363.9,217 		"/>
		<path d="M355.8,420l8.3,13.7c25.5-15.6,47.4-36.5,64.2-61.2l-13.2-9C399.6,386.4,379.4,405.6,355.8,420z"/>
		<path d="M148.3,420l-8.3,13.7c-25.5-15.6-47.4-36.5-64.2-61.2l13.2-9C104.6,386.4,124.8,405.6,148.3,420z"/>
		<path d="M432,179.2l14.7-6.4c-18.5-42.2-50.5-77.1-90.8-99.3l-7.7,14C385.4,108,414.9,140.2,432,179.2z"/>
		<path d="M148.5,96.9l-9-13.2c-32.7,22.1-58.4,53-74.2,89.1l14.7,6.4C94.6,145.8,118.3,117.3,148.5,96.9z"/>
	</g>
	<circle class="st0" cx="78.4" cy="243" r="12.6"/>
</g>
<g id="Layer_2">
	<circle cx="256" cy="344.9" r="31.7"/>
	<path d="M182,427.3c0-37,54.8-37,74-37s74,0.9,74,37c0,18.5,0,18.5,0,18.5H182V427.3z"/>
</g>
<g id="Layer_3">
	<g id="_1" class="st2">
		<path class="st3" d="M264.7,147.7h-17.3c-2.2,0-4.1-1.7-4.3-3.9l-1.3-12.1c-1.8-0.6-3.5-1.3-5.2-2.2l-9.5,7.6
			c-1.7,1.4-4.2,1.2-5.7-0.3l-12.3-12.3c-1.6-1.6-1.7-4-0.3-5.7l7.6-9.5c-0.8-1.7-1.6-3.5-2.2-5.2l-12.1-1.3
			c-2.2-0.2-3.9-2.1-3.9-4.3V81.3c0-2.2,1.7-4.1,3.9-4.3l12.1-1.3c0.6-1.8,1.3-3.5,2.2-5.2l-7.6-9.5c-1.4-1.7-1.2-4.2,0.3-5.7
			L221.3,43c1.6-1.6,4-1.7,5.7-0.3l9.5,7.6c1.7-0.8,3.5-1.6,5.2-2.2L243,36c0.2-2.2,2.1-3.9,4.3-3.9h17.3c2.2,0,4.1,1.7,4.3,3.9
			l1.3,12.1c1.8,0.6,3.5,1.3,5.2,2.2l9.5-7.6c1.7-1.4,4.2-1.2,5.7,0.3L303,55.2c1.6,1.6,1.7,4,0.3,5.7l-7.6,9.5
			c0.8,1.7,1.6,3.5,2.2,5.2l12.1,1.3c2.2,0.2,3.9,2.1,3.9,4.3v17.4c0,2.2-1.7,4.1-3.8,4.3l-12.1,1.3c-0.6,1.8-1.3,3.5-2.2,5.2
			l7.6,9.5c1.4,1.7,1.2,4.2-0.3,5.7l-12.3,12.3c-1.6,1.6-4,1.7-5.7,0.3l-9.5-7.6c-1.7,0.8-3.5,1.6-5.2,2.2l-1.3,12.1
			C268.7,146,266.9,147.7,264.7,147.7z M251.2,139.1h9.6L262,128c0.2-1.8,1.5-3.3,3.2-3.7c3-0.8,6-2,8.7-3.6
			c1.5-0.9,3.5-0.8,4.9,0.4l8.7,7l6.8-6.8l-7-8.6c-1.1-1.4-1.3-3.3-0.4-4.9c1.6-2.7,2.8-5.6,3.6-8.7c0.5-1.7,1.9-3,3.7-3.2l11.1-1.2
			v-9.6L294.1,84c-1.8-0.2-3.3-1.5-3.7-3.2c-0.8-3-2-5.9-3.6-8.7c-0.9-1.5-0.8-3.5,0.4-4.9l7-8.7l-6.8-6.8l-8.7,7
			c-1.4,1.1-3.3,1.3-4.9,0.4c-2.7-1.6-5.6-2.8-8.7-3.6c-1.7-0.5-3-1.9-3.2-3.7l-1.2-11.1h-9.6L250,51.9c-0.2,1.8-1.5,3.3-3.2,3.7
			c-3,0.8-5.9,2-8.7,3.6c-1.5,0.9-3.5,0.8-4.9-0.4l-8.7-7l-6.8,6.8l7,8.7c1.1,1.4,1.3,3.3,0.4,4.9c-1.6,2.7-2.8,5.6-3.6,8.7
			c-0.5,1.7-1.9,3-3.7,3.2l-11.1,1.2v9.6l11.1,1.2c1.8,0.2,3.3,1.5,3.7,3.2c0.8,3,2,5.9,3.6,8.7c0.9,1.5,0.8,3.5-0.4,4.9l-7,8.7
			l6.8,6.8l8.7-7c1.4-1.1,3.3-1.3,4.9-0.4c2.7,1.6,5.6,2.8,8.7,3.6c1.7,0.5,3,1.9,3.2,3.7L251.2,139.1z M309.5,98.6L309.5,98.6z"/>
		<path class="st3" d="M256,116.2c-14.5,0-26.3-11.8-26.2-26.3s11.8-26.3,26.3-26.2c14.5,0,26.2,11.8,26.2,26.3
			C282.2,104.4,270.5,116.2,256,116.2z M256,72.3c-9.7,0-17.6,7.9-17.6,17.6s7.9,17.6,17.6,17.6c9.7,0,17.6-7.9,17.6-17.6
			C273.6,80.2,265.7,72.3,256,72.3L256,72.3z"/>
	</g>
	<g id="Processing">
		<path class="st0" d="M250.7,110.3c-2.1-3.1-1.7-7.3,0.9-10l4.1-4.1c2.7-2.7,6.9-3.1,10-0.9l4.2,2.9c0-0.2,0.1-0.4,0.2-0.6
			c0.6-1.2,3.2-7.1,3.7-7.9c1.4-2.3,4-3.8,6.7-3.8h5.9c0.4,0,0.8,0,1.3,0.1c0.1-0.3,0.1-0.6,0.1-0.8V77c0-2.1-1.5-4-3.6-4.3
			l-9.4-1.8c-1.4-0.3-2.6-1.2-3.1-2.6c-0.4-1.3-1-2.5-1.5-3.7c-0.6-1.3-0.5-2.8,0.4-4l5.4-7.9c1.2-1.8,1-4.1-0.5-5.6l-5.7-5.7
			c-1.5-1.5-3.9-1.7-5.6-0.5l-7.9,5.4c-1.2,0.8-2.7,1-4,0.4c-1.2-0.6-2.4-1.1-3.7-1.5c-1.3-0.5-2.3-1.7-2.6-3.1l-1.8-9.4
			c-0.4-2.1-2.2-3.6-4.3-3.6h-8.1c-2.1,0-4,1.5-4.3,3.6l-1.8,9.4c-0.3,1.4-1.2,2.6-2.6,3.1c-1.3,0.4-2.5,0.9-3.7,1.5
			c-1.3,0.6-2.8,0.5-4-0.4l-7.9-5.4c-1.8-1.2-4.1-1-5.6,0.5l-5.7,5.7c-1.5,1.5-1.7,3.9-0.5,5.6l5.4,7.9c0.8,1.2,0.9,2.7,0.4,4
			c-0.6,1.2-1.1,2.4-1.5,3.7c-0.5,1.3-1.7,2.3-3.1,2.6l-9.4,1.8c-2.1,0.4-3.6,2.2-3.6,4.3v8.1c0,2.1,1.5,4,3.6,4.3l9.4,1.8
			c1.4,0.3,2.6,1.2,3.1,2.6c0.4,1.3,1,2.5,1.5,3.7c0.6,1.3,0.5,2.8-0.4,4l-5.4,7.9c-1.2,1.8-1,4.1,0.5,5.6l5.7,5.7
			c1.5,1.5,3.9,1.7,5.6,0.5l7.9-5.4c1.2-0.8,2.7-0.9,4-0.4c1.2,0.6,2.4,1.1,3.7,1.5c1.3,0.5,2.3,1.7,2.6,3.1l1.8,9.4
			c0.4,2.1,2.2,3.6,4.3,3.6h8.1c0.6,0,1.2-0.1,1.7-0.3c-0.1-0.6-0.2-1.2-0.2-1.7v-5.9c0-2.7,1.4-5.2,3.6-6.6c2.9-1.3,6-2.5,9.1-3.4
			L250.7,110.3z M235.8,97.8c-9.2,0-16.7-7.5-16.7-16.7c0-9.2,7.5-16.7,16.7-16.7s16.7,7.5,16.7,16.7c0,0,0,0,0,0
			C252.5,90.3,245,97.8,235.8,97.8L235.8,97.8z"/>
		<path d="M318.4,122.8l-6.8-1.3c-1.3-0.2-2.4-1.1-2.8-2.4c-0.3-0.9-0.7-1.7-1.1-2.6c-0.6-1.2-0.4-2.6,0.3-3.7l3.9-5.7
			c0.7-1,0.5-2.2-0.3-3.1l-4.1-4.1c-0.8-0.8-2.1-0.9-3.1-0.3l-5.7,3.9c-1.1,0.7-2.5,0.9-3.7,0.3c-0.8-0.4-1.7-0.8-2.6-1.1
			c-1.2-0.4-2.1-1.5-2.4-2.8l-1.3-6.8c-0.2-1.1-1.2-2-2.4-2h-5.9c-1.2,0-2.1,0.8-2.4,2l-1.3,6.8c-0.2,1.3-1.1,2.4-2.4,2.8
			c-0.9,0.3-1.7,0.7-2.6,1.1c-1.2,0.6-2.6,0.4-3.7-0.3l-5.7-3.9c-1-0.7-2.2-0.5-3.1,0.3l-4.1,4.1c-0.8,0.8-0.9,2.1-0.3,3.1l3.9,5.7
			c0.7,1.1,0.9,2.5,0.3,3.7c-0.4,0.8-0.8,1.7-1.1,2.6c-0.4,1.2-1.5,2.1-2.8,2.4l-6.8,1.3c-1.1,0.2-2,1.2-2,2.4v5.9
			c0,1.2,0.8,2.1,2,2.4l6.8,1.3c1.3,0.2,2.4,1.1,2.8,2.4c0.3,0.9,0.7,1.7,1.1,2.6c0.6,1.2,0.4,2.6-0.3,3.7l-3.9,5.7
			c-0.7,1-0.5,2.2,0.3,3.1l4.1,4.1c0.8,0.8,2.1,0.9,3.1,0.3l5.7-3.9c1.1-0.7,2.5-0.9,3.7-0.3c0.8,0.4,1.7,0.8,2.6,1.1
			c1.2,0.4,2.1,1.5,2.4,2.8l1.3,6.8c0.2,1.1,1.2,2,2.4,2h5.9c1.2,0,2.1-0.8,2.4-2l1.3-6.8c0.2-1.3,1.1-2.4,2.4-2.8
			c0.9-0.3,1.7-0.7,2.6-1.1c1.2-0.6,2.6-0.4,3.7,0.3l5.7,3.9c1,0.7,2.2,0.5,3.1-0.3l4.1-4.1c0.8-0.8,0.9-2.1,0.3-3.1l-3.9-5.7
			c-0.7-1.1-0.9-2.5-0.3-3.7c0.4-0.8,0.8-1.7,1.1-2.6c0.4-1.2,1.5-2.1,2.8-2.4l6.8-1.3c1.1-0.2,2-1.2,2-2.4v-5.9
			C320.3,124,319.5,123,318.4,122.8z M283.6,141.7c-7.5,0-13.6-6.1-13.6-13.6c0-7.5,6.1-13.6,13.6-13.6c7.5,0,13.6,6.1,13.6,13.6
			C297.2,135.6,291.1,141.7,283.6,141.7L283.6,141.7z"/>
	</g>
</g>
</svg>
