<?xml version="1.0" encoding="utf-8"?>
<!-- Generator: Adobe Illustrator 27.0.0, SVG Export Plug-In . SVG Version: 6.00 Build 0)  -->
<svg version="1.1" xmlns="http://www.w3.org/2000/svg" xmlns:xlink="http://www.w3.org/1999/xlink" x="0px" y="0px"
	 viewBox="0 0 841.9 595.3" style="enable-background:new 0 0 841.9 595.3;" xml:space="preserve">
<style type="text/css">
	.st0{display:none;opacity:0.23;}
	.st1{fill:none;stroke:#000000;stroke-miterlimit:10;}
	.st2{fill:none;stroke:#000000;stroke-miterlimit:10;stroke-dasharray:3.5233,3.5233;}
	.st3{fill:none;stroke:#000000;stroke-miterlimit:10;stroke-dasharray:3.4112,3.4112;}
	.st4{font-family:'Tahoma';}
	.st5{font-size:14px;}
	.st6{font-family:'AdobeMingStd-Light-B5pc-H';}
	.st7{fill:#ED1C24;}
	.st8{font-family:'AdobeFanHeitiStd-Bold-B5pc-H';}
	.st9{font-size:16px;}
	.st10{font-family:'STHeitiTC-Medium';}
	.st11{font-size:24px;}
</style>
<g id="Layer_1" class="st0">
	
		<image style="display:inline;overflow:visible;" width="600" height="339" xlink:href="../Downloads/1380900087-2089603003_n.jpg"  transform="matrix(1.6433 0 0 1.6433 -3 19.0928)">
	</image>
</g>
<g id="Layer_2">
	<rect x="61" y="35" class="st1" width="725.3" height="508.4"/>
	<circle class="st1" cx="179.8" cy="249.8" r="77.2"/>
	<circle class="st1" cx="179.8" cy="250.4" r="46.9"/>
	<circle class="st1" cx="179.7" cy="250.4" r="34.8"/>
	<circle class="st1" cx="120.8" cy="249.8" r="9"/>
	<circle class="st1" cx="179.8" cy="191.4" r="9"/>
	<circle class="st1" cx="179.8" cy="309.4" r="9"/>
	<line class="st1" x1="167.7" y1="249.8" x2="191.8" y2="249.8"/>
	<line class="st1" x1="179.7" y1="238.4" x2="179.7" y2="262.5"/>
	<line class="st1" x1="99" y1="249.8" x2="142.5" y2="249.8"/>
	<line class="st1" x1="120.8" y1="262.5" x2="120.8" y2="238.4"/>
	<circle class="st1" cx="238.7" cy="249.8" r="9"/>
	<line class="st1" x1="217" y1="249.8" x2="260.5" y2="249.8"/>
	<line class="st1" x1="238.7" y1="262.5" x2="238.7" y2="238.4"/>
	<line class="st1" x1="179.7" y1="276.7" x2="179.7" y2="342"/>
	<line class="st1" x1="179.7" y1="158.8" x2="179.7" y2="224.1"/>
	<circle class="st1" cx="662.4" cy="249.8" r="77.2"/>
	<circle class="st1" cx="662.4" cy="250.4" r="46.9"/>
	<circle class="st1" cx="662.4" cy="250.4" r="34.8"/>
	<circle class="st1" cx="603.4" cy="249.8" r="9"/>
	<circle class="st1" cx="662.4" cy="191.4" r="9"/>
	<circle class="st1" cx="662.4" cy="309.4" r="9"/>
	<line class="st1" x1="650.4" y1="249.8" x2="674.5" y2="249.8"/>
	<line class="st1" x1="662.4" y1="238.4" x2="662.4" y2="262.5"/>
	<line class="st1" x1="581.7" y1="249.8" x2="625.2" y2="249.8"/>
	<line class="st1" x1="603.4" y1="262.5" x2="603.4" y2="238.4"/>
	<circle class="st1" cx="721.4" cy="249.8" r="9"/>
	<line class="st1" x1="699.6" y1="249.8" x2="743.1" y2="249.8"/>
	<line class="st1" x1="721.4" y1="262.5" x2="721.4" y2="238.4"/>
	<line class="st1" x1="662.4" y1="276.7" x2="662.4" y2="342"/>
	<line class="st1" x1="662.4" y1="158.8" x2="662.4" y2="224.1"/>
	<path class="st1" d="M479,292.6"/>
	<rect x="364.4" y="203.5" class="st1" width="11.1" height="92.5"/>
	<rect x="495.3" y="204.2" class="st1" width="11.1" height="92.5"/>
	<g>
		<g>
			<line class="st1" x1="375.5" y1="182.4" x2="378.5" y2="182.4"/>
			<line class="st2" x1="382" y1="182.4" x2="387.3" y2="182.4"/>
			<line class="st1" x1="389.1" y1="182.4" x2="392.1" y2="182.4"/>
		</g>
	</g>
	<g>
		<g>
			<line class="st1" x1="375.5" y1="200.4" x2="378.5" y2="200.4"/>
			<line class="st2" x1="382" y1="200.4" x2="387.3" y2="200.4"/>
			<line class="st1" x1="389.1" y1="200.4" x2="392.1" y2="200.4"/>
		</g>
	</g>
	<g>
		<g>
			<line class="st1" x1="375.5" y1="240.7" x2="378.5" y2="240.7"/>
			<line class="st2" x1="382" y1="240.7" x2="387.3" y2="240.7"/>
			<line class="st1" x1="389.1" y1="240.7" x2="392.1" y2="240.7"/>
		</g>
	</g>
	<g>
		<g>
			<line class="st1" x1="375.5" y1="258.8" x2="378.5" y2="258.8"/>
			<line class="st2" x1="382" y1="258.8" x2="387.3" y2="258.8"/>
			<line class="st1" x1="389.1" y1="258.8" x2="392.1" y2="258.8"/>
		</g>
	</g>
	<g>
		<g>
			<line class="st1" x1="478.9" y1="240.7" x2="481.9" y2="240.7"/>
			<line class="st2" x1="485.4" y1="240.7" x2="490.7" y2="240.7"/>
			<line class="st1" x1="492.4" y1="240.7" x2="495.4" y2="240.7"/>
		</g>
	</g>
	<g>
		<g>
			<line class="st1" x1="478.9" y1="258.8" x2="481.9" y2="258.8"/>
			<line class="st2" x1="485.4" y1="258.8" x2="490.7" y2="258.8"/>
			<line class="st1" x1="492.4" y1="258.8" x2="495.4" y2="258.8"/>
		</g>
	</g>
	<g>
		<g>
			<line class="st1" x1="479" y1="182.4" x2="482" y2="182.4"/>
			<line class="st3" x1="485.4" y1="182.4" x2="490.5" y2="182.4"/>
			<line class="st1" x1="492.3" y1="182.4" x2="495.3" y2="182.4"/>
		</g>
	</g>
	<g>
		<g>
			<line class="st1" x1="479" y1="200.4" x2="482" y2="200.4"/>
			<line class="st3" x1="485.4" y1="200.4" x2="490.5" y2="200.4"/>
			<line class="st1" x1="492.3" y1="200.4" x2="495.3" y2="200.4"/>
		</g>
	</g>
	<g>
		<g>
			<line class="st1" x1="375.5" y1="300.4" x2="378.5" y2="300.4"/>
			<line class="st2" x1="382" y1="300.4" x2="387.3" y2="300.4"/>
			<line class="st1" x1="389.1" y1="300.4" x2="392.1" y2="300.4"/>
		</g>
	</g>
	<g>
		<g>
			<line class="st1" x1="375.5" y1="318.4" x2="378.5" y2="318.4"/>
			<line class="st2" x1="382" y1="318.4" x2="387.3" y2="318.4"/>
			<line class="st1" x1="389.1" y1="318.4" x2="392.1" y2="318.4"/>
		</g>
	</g>
	<g>
		<g>
			<line class="st1" x1="479" y1="300.4" x2="482" y2="300.4"/>
			<line class="st3" x1="485.4" y1="300.4" x2="490.5" y2="300.4"/>
			<line class="st1" x1="492.3" y1="300.4" x2="495.3" y2="300.4"/>
		</g>
	</g>
	<g>
		<g>
			<line class="st1" x1="479" y1="318.4" x2="482" y2="318.4"/>
			<line class="st3" x1="485.4" y1="318.4" x2="490.5" y2="318.4"/>
			<line class="st1" x1="492.3" y1="318.4" x2="495.3" y2="318.4"/>
		</g>
	</g>
	<path class="st1" d="M436.9,285.9"/>
	<path class="st1" d="M436.9,249.8"/>
	<path class="st1" d="M436.9,292.6"/>
	<path class="st1" d="M436.9,249.8"/>
	<polyline class="st1" points="392.1,327 375.5,327 375.5,172.5 392.1,172.5 	"/>
	<polyline class="st1" points="478.7,327 495.3,327 495.3,172.5 478.7,172.5 479,206.9 392.1,206.9 392.1,172.5 375.5,172.5 
		375.5,327 392.1,327 392.1,292.6 479,292.6 478.7,327 	"/>
	<rect x="375.5" y="172.5" class="st1" width="16.6" height="154.5"/>
	<rect x="478.9" y="172.5" class="st1" width="16.6" height="154.5"/>
	<line class="st1" x1="353" y1="249.8" x2="519.9" y2="249.8"/>
	<rect x="145" y="445" class="st1" width="641.4" height="98.4"/>
	<rect x="145" y="445" class="st1" width="136.6" height="98.4"/>
	<rect x="145" y="469.9" class="st1" width="68.3" height="73.5"/>
	<rect x="145" y="469.9" class="st1" width="136.6" height="12"/>
	<rect x="145" y="481.9" class="st1" width="136.6" height="12"/>
	<rect x="145" y="494" class="st1" width="136.6" height="12"/>
	<rect x="145" y="506" class="st1" width="136.6" height="12"/>
	<rect x="145" y="518.1" class="st1" width="136.6" height="12"/>
	<rect x="145" y="445" class="st1" width="418.7" height="24.8"/>
	<rect x="563.7" y="403.6" class="st1" width="222.6" height="139.8"/>
	<rect x="440.9" y="445" class="st1" width="122.8" height="98.4"/>
	<rect x="563.8" y="445" class="st1" width="122.8" height="49.2"/>
	<rect x="281.5" y="445" class="st1" width="504.8" height="49.2"/>
	<rect x="281.5" y="494" class="st1" width="159.4" height="24.1"/>
	<rect x="281.5" y="445" class="st1" width="39.4" height="73"/>
	<g>
		<g>
			<line class="st1" x1="111.4" y1="115.1" x2="248.1" y2="115.1"/>
			<g>
				<polygon points="113.3,118 102.5,115.1 113.3,112.2 				"/>
			</g>
			<g>
				<polygon points="246.2,118 257,115.1 246.2,112.2 				"/>
			</g>
		</g>
	</g>
	<g>
		<g>
			<line class="st1" x1="141.7" y1="145.5" x2="217.8" y2="145.5"/>
			<g>
				<polygon points="143.7,148.4 132.8,145.5 143.7,142.6 				"/>
			</g>
			<g>
				<polygon points="215.8,148.4 226.7,145.5 215.8,142.6 				"/>
			</g>
		</g>
	</g>
	<g>
		<g>
			<line class="st1" x1="373.2" y1="115.1" x2="497.5" y2="115.1"/>
			<g>
				<polygon points="375.2,118 364.4,115.1 375.2,112.2 				"/>
			</g>
			<g>
				<polygon points="495.6,118 506.4,115.1 495.6,112.2 				"/>
			</g>
		</g>
	</g>
	<g>
		<g>
			<line class="st1" x1="400.8" y1="351.9" x2="470" y2="351.9"/>
			<g>
				<polygon points="402.8,354.8 391.9,351.9 402.8,349 				"/>
			</g>
			<g>
				<polygon points="468,354.8 478.9,351.9 468,349 				"/>
			</g>
		</g>
	</g>
	<g>
		<g>
			<line class="st1" x1="318" y1="318.1" x2="318" y2="181.4"/>
			<g>
				<polygon points="320.9,316.2 318,327 315.1,316.2 				"/>
			</g>
			<g>
				<polygon points="320.9,183.3 318,172.5 315.1,183.3 				"/>
			</g>
		</g>
	</g>
	<g>
		<g>
			<line class="st1" x1="594" y1="141.9" x2="730.8" y2="141.9"/>
			<g>
				<polygon points="596,144.8 585.2,141.9 596,139 				"/>
			</g>
			<g>
				<polygon points="728.8,144.8 739.7,141.9 728.8,139 				"/>
			</g>
		</g>
	</g>
	<line class="st1" x1="102.5" y1="104.6" x2="102.5" y2="224.1"/>
	<line class="st1" x1="132.8" y1="132" x2="132.8" y2="224.1"/>
	<line class="st1" x1="226.7" y1="132" x2="226.7" y2="224.1"/>
	<line class="st1" x1="257" y1="104.6" x2="257" y2="224.1"/>
	<line class="st1" x1="364.4" y1="99.6" x2="364.4" y2="191.4"/>
	<line class="st1" x1="392.1" y1="335.6" x2="392.1" y2="360"/>
	<line class="st1" x1="479" y1="335.6" x2="479" y2="360"/>
	<line class="st1" x1="506.4" y1="99.6" x2="506.4" y2="191.4"/>
	<line class="st1" x1="585.2" y1="124.4" x2="585.2" y2="224.1"/>
	<line class="st1" x1="739.7" y1="124.4" x2="739.7" y2="224.1"/>
	<line class="st1" x1="353" y1="172.5" x2="307.4" y2="172.5"/>
	<line class="st1" x1="353" y1="327" x2="307.4" y2="327"/>
	<path class="st1" d="M733.5,111.1c0,2.4-0.3,4.5-1,6.4c-0.2,0.4-0.3,0.8-0.5,1.2c-0.5,1-1,1.8-1.7,2.5c-0.6,0.7-1.3,1.2-2.1,1.7
		c-7.1,4.1-18.8-2.8-26-15.3c-7.3-12.6-7.4-26.1-0.3-30.2c0.8-0.5,1.6-0.8,2.5-1c0.7-0.2,1.4-0.2,2.2-0.2c0.2,0,0.4,0,0.6,0
		c0.2,0,0.3,0,0.5,0c0.1,0,0.2,0,0.4,0c0.2,0,0.3,0,0.5,0.1c0.5,0.1,0.9,0.2,1.4,0.3c0.5,0.1,0.9,0.3,1.4,0.4
		c0.5,0.2,0.9,0.4,1.4,0.6h0c0.5,0.2,0.9,0.5,1.4,0.7c0.5,0.2,0.9,0.5,1.4,0.8c0.1,0,0.1,0.1,0.2,0.1c0.1,0.1,0.3,0.2,0.4,0.3
		c0.1,0.1,0.2,0.1,0.3,0.2c0.1,0.1,0.2,0.1,0.3,0.2c0.3,0.2,0.6,0.5,1,0.7c0,0,0,0,0,0c0.3,0.3,0.7,0.5,1,0.8c0.3,0.3,0.7,0.6,1,0.8
		c0.7,0.6,1.3,1.2,1.9,1.9c0.3,0.3,0.6,0.6,0.9,0.9c0.4,0.4,0.7,0.8,1.1,1.3c0.3,0.3,0.5,0.7,0.8,1c0.1,0.1,0.2,0.3,0.3,0.5
		c0.5,0.7,1,1.4,1.5,2.1c0.2,0.3,0.4,0.6,0.6,0.9c0.2,0.3,0.4,0.6,0.6,0.9c0.1,0.1,0.2,0.3,0.3,0.4c0.1,0.1,0.2,0.3,0.3,0.5
		c0,0,0,0.1,0.1,0.1c0,0.1,0.1,0.2,0.1,0.2c0.4,0.7,0.8,1.5,1.2,2.2c0.1,0.2,0.2,0.4,0.3,0.6c0.1,0.2,0.2,0.3,0.2,0.5
		c0.4,0.8,0.7,1.6,1,2.4c0,0,0,0.1,0,0.1c0.3,0.8,0.6,1.5,0.8,2.2c0,0,0,0,0,0c0.1,0.4,0.2,0.7,0.3,1.1c0.1,0.4,0.2,0.7,0.3,1.1
		c0.2,0.6,0.3,1.3,0.5,1.9c0,0.2,0.1,0.4,0.1,0.6c0,0.2,0.1,0.3,0.1,0.5c0.1,0.5,0.2,1,0.2,1.4c0,0,0,0.1,0,0.1c0,0.2,0,0.3,0.1,0.5
		c0,0.2,0,0.5,0.1,0.7c0,0.4,0,0.8,0.1,1.1C733.5,110.4,733.5,110.8,733.5,111.1z"/>
	<path class="st1" d="M732.8,120.2c-0.8,0.5-1.6,0.8-2.5,1c0.7-0.7,1.2-1.6,1.7-2.5c0.2-0.4,0.3-0.8,0.5-1.2c0.7-1.8,1-4,1-6.4
		c0-0.3,0-0.7,0-1c0-0.4,0-0.8-0.1-1.1c0-0.2,0-0.5-0.1-0.7c0-0.2,0-0.3-0.1-0.5c0,0,0-0.1,0-0.1c-0.1-0.5-0.1-1-0.2-1.4
		c0-0.2-0.1-0.3-0.1-0.5c0-0.2-0.1-0.4-0.1-0.6c-0.1-0.6-0.3-1.3-0.5-1.9c-0.1-0.4-0.2-0.7-0.3-1.1c-0.1-0.4-0.2-0.7-0.3-1.1
		c0,0,0,0,0,0c-0.2-0.7-0.5-1.5-0.8-2.2c0,0,0-0.1,0-0.1c-0.3-0.8-0.6-1.6-1-2.4c-0.1-0.2-0.2-0.3-0.2-0.5c-0.1-0.2-0.2-0.4-0.3-0.6
		c-0.4-0.7-0.8-1.5-1.2-2.2c0-0.1-0.1-0.2-0.1-0.2c0,0-0.1-0.1-0.1-0.1c0,0,0,0,0,0c-0.1-0.1-0.2-0.3-0.2-0.4
		c-0.1-0.2-0.2-0.3-0.3-0.4c-0.2-0.3-0.4-0.6-0.6-0.9c-0.2-0.3-0.4-0.6-0.6-0.9c-0.5-0.7-1-1.5-1.5-2.1c-0.1-0.2-0.2-0.3-0.3-0.5
		c-0.3-0.4-0.5-0.7-0.8-1c-0.4-0.4-0.7-0.8-1.1-1.3c-0.3-0.3-0.6-0.6-0.9-0.9c-0.6-0.7-1.3-1.3-1.9-1.9c-0.3-0.3-0.7-0.6-1-0.8
		c-0.3-0.3-0.7-0.5-1-0.8c0,0,0,0,0,0c-0.3-0.2-0.6-0.5-1-0.7c-0.1-0.1-0.2-0.2-0.3-0.2c-0.1-0.1-0.2-0.1-0.3-0.2
		c-0.1-0.1-0.3-0.2-0.4-0.3c-0.1-0.1-0.1-0.1-0.2-0.1c-0.5-0.3-0.9-0.6-1.4-0.8c-0.5-0.3-0.9-0.5-1.4-0.7h0
		c-0.5-0.2-0.9-0.4-1.4-0.6c-0.5-0.2-0.9-0.3-1.4-0.4c-0.5-0.1-0.9-0.2-1.4-0.3c-0.2,0-0.3-0.1-0.5-0.1c-0.1,0-0.2,0-0.4,0
		c-0.2,0-0.3,0-0.5,0c-0.2,0-0.4,0-0.6,0c-0.7,0-1.5,0.1-2.2,0.2c0.6-0.7,1.3-1.2,2.1-1.7c3.9-2.2,9.1-1.2,14.2,2.2
		c0.4,0.2,0.7,0.5,1.1,0.8c0.3,0.2,0.6,0.4,0.9,0.7c0.2,0.2,0.4,0.4,0.7,0.5c0,0,0,0,0,0c0.2,0.2,0.4,0.4,0.7,0.6
		c0.2,0.2,0.5,0.4,0.7,0.7c0.3,0.3,0.6,0.5,0.9,0.8c0.2,0.2,0.4,0.4,0.6,0.6v0c0.3,0.3,0.6,0.7,0.9,1c0,0,0.1,0.1,0.1,0.1
		c0.3,0.3,0.6,0.7,0.9,1c0.3,0.3,0.5,0.6,0.8,0.9c0.3,0.4,0.6,0.8,0.9,1.2c0,0,0,0.1,0,0.1c0,0,0.1,0.1,0.1,0.2
		c0.3,0.4,0.5,0.7,0.8,1.1c0.2,0.4,0.5,0.7,0.7,1.1c0,0,0.1,0.1,0.1,0.2c0.1,0.1,0.2,0.2,0.2,0.3c0.2,0.4,0.5,0.8,0.7,1.2
		c0.3,0.5,0.5,1,0.8,1.5c0.2,0.4,0.4,0.8,0.6,1.2c0,0.1,0.1,0.1,0.1,0.2c0.2,0.4,0.4,0.8,0.5,1.1c0.1,0.2,0.1,0.3,0.2,0.5
		c0.1,0.2,0.1,0.3,0.2,0.5c0.2,0.4,0.3,0.8,0.5,1.1c0.1,0.3,0.2,0.6,0.3,0.8c0.1,0.3,0.2,0.6,0.3,0.9c0.1,0.3,0.2,0.6,0.3,1
		c0.1,0.4,0.3,0.8,0.4,1.2c0,0.1,0,0.1,0.1,0.2c0.1,0.5,0.2,0.9,0.4,1.4c0.1,0.4,0.2,0.8,0.3,1.2c0.1,0.2,0.1,0.5,0.1,0.7
		c0,0,0,0.1,0,0.2c0.1,0.4,0.1,0.7,0.2,1.1c0,0.2,0,0.3,0.1,0.5c0,0.2,0,0.3,0.1,0.5c0,0.3,0.1,0.7,0.1,1c0,0.3,0,0.7,0.1,1
		C738.3,113.4,736.5,118.1,732.8,120.2z"/>
	<path class="st1" d="M721.6,84.1c-0.6-0.7-1.3-1.3-1.9-1.9C720.3,82.8,721,83.5,721.6,84.1z"/>
	<path class="st1" d="M729.9,96.3c0.4,0.8,0.7,1.6,1,2.4C730.6,97.9,730.2,97.1,729.9,96.3z"/>
	<ellipse transform="matrix(0.866 -0.5 0.5 0.866 54.4809 366.4688)" class="st1" cx="711.1" cy="81.6" rx="1.7" ry="2.7"/>
	<path class="st1" d="M712.4,115.3c-0.8,0.5-2.1-0.2-2.8-1.5c-0.7-1.2-0.7-2.6,0-3.1c1.1,1.1,2.3,2,3.4,2.7c0,0,0,0,0,0
		C713.2,114.3,713,115,712.4,115.3z"/>
	<ellipse transform="matrix(0.866 -0.5 0.5 0.866 41.8655 379.0841)" class="st1" cx="728.3" cy="111.4" rx="1.7" ry="2.7"/>
	<path class="st1" d="M702.3,98c-0.7-0.1-1.6-0.7-2.1-1.6c-0.8-1.3-0.7-2.7,0.1-3.2c0.4-0.2,0.9-0.2,1.4,0
		C701.6,94.7,701.8,96.3,702.3,98z"/>
	<ellipse transform="matrix(0.866 -0.5 0.5 0.866 52.6175 391.0107)" class="st1" cx="755.9" cy="97.3" rx="2.1" ry="2.7"/>
	<ellipse transform="matrix(0.866 -0.5 0.5 0.866 65.883 378.7761)" class="st1" cx="739.7" cy="66.4" rx="2.1" ry="2.7"/>
	<path class="st1" d="M756.2,106.1c-0.1,0.1-0.2,0.2-0.4,0.2c-4.2,2.4-9.6,2-14.7-0.6l2-1.2l4.6-2.8c6-3.5,6.9-13.2,1.9-21.7
		c-4.9-8.5-13.7-12.6-19.7-9.2l0,0l-0.1,0l-0.8,0.6l-3.5,2.3l-2.2,1.5c0.2-6,2.5-11,6.8-13.5c0.6-0.3,1.2-0.6,1.8-0.8
		c8.2-3,19.4,3.1,26,14.5C764.9,87.6,764.1,101.2,756.2,106.1z"/>
	<path class="st1" d="M758.1,105.3c-0.6,0.4-1.2,0.6-1.9,0.9c7.9-4.9,8.7-18.6,1.7-30.7c-6.6-11.5-17.8-17.5-26-14.5
		c0.1-0.1,0.3-0.2,0.4-0.3c8.2-4.8,20.7,1.4,27.8,13.7C767.2,86.7,766.3,100.5,758.1,105.3z"/>
	<path class="st1" d="M709.4,86.5c-0.5-0.2-1-0.3-1.5-0.3C708.4,86.2,708.9,86.3,709.4,86.5z"/>
	<path class="st1" d="M720.8,97.8c0.5,1,0.9,2,1.3,3C721.7,99.8,721.3,98.8,720.8,97.8z"/>
	<path class="st1" d="M721.3,111.4c-0.4,0.8-0.9,1.3-1.5,1.7c-3.3,1.9-9.3-2.1-13.3-9.1c-1.4-2.4-2.3-4.8-2.9-7
		c-0.2-0.8-0.3-1.5-0.4-2.2c-0.4-3.2,0.3-5.8,2.1-6.8c0.7-0.4,1.4-0.5,2.2-0.5c3.4,0.2,7.9,4,11.1,9.5
		C721.8,102.6,722.8,108.4,721.3,111.4z"/>
	<path class="st1" d="M723.3,109.2c0,0.2,0,0.3-0.1,0.4c0,0.1,0,0.2,0,0.3c0,0.2-0.1,0.3-0.1,0.5c0,0.1-0.1,0.2-0.1,0.3
		c-0.1,0.4-0.2,0.7-0.3,1c-0.3,0.8-0.8,1.6-1.5,2.1c-0.2,0.2-0.5,0.4-0.8,0.5c-2,1.2-4.7,0.7-7.5-0.9c0,0,0,0,0,0
		c-1.2-0.7-2.3-1.6-3.4-2.7c-1.6-1.6-3.2-3.6-4.5-5.9c-1.3-2.3-2.3-4.6-2.8-6.8c-0.4-1.7-0.7-3.3-0.6-4.8c0-3,1-5.4,2.9-6.5
		c0.4-0.2,0.8-0.4,1.3-0.5c0.7-0.2,1.4-0.2,2.1-0.1c0.5,0.1,1,0.2,1.5,0.3c0,0,0,0,0.1,0c0.2,0.1,0.5,0.2,0.7,0.3
		c0.2,0.1,0.5,0.2,0.8,0.4c0.2,0.1,0.4,0.2,0.6,0.3c0,0,0,0,0.1,0c0.1,0.1,0.2,0.1,0.4,0.2c0,0,0,0,0,0c0.2,0.1,0.4,0.2,0.5,0.3
		c0.1,0.1,0.2,0.1,0.3,0.2c0.2,0.1,0.3,0.2,0.5,0.4c0.3,0.2,0.5,0.4,0.8,0.6c0.2,0.2,0.5,0.4,0.7,0.7c0,0,0.1,0.1,0.1,0.1
		c0.2,0.2,0.5,0.5,0.7,0.7c0.8,0.8,1.5,1.6,2.2,2.6c0.2,0.3,0.5,0.6,0.7,1c0.5,0.7,0.9,1.4,1.3,2.1c0.3,0.5,0.6,1,0.8,1.5
		c0.5,1,0.9,2,1.3,3C723.2,103.8,723.6,106.8,723.3,109.2z"/>
	<path class="st1" d="M721.3,111.4c-3.6-1.1-7.7-4.7-10.6-9.8c-3-5.1-4-10.4-3.2-14.1c3.4,0.2,7.9,4,11.1,9.5
		C721.8,102.6,722.8,108.4,721.3,111.4z"/>
	<path class="st1" d="M724.2,111.8c-0.4,0.7-1,1.2-1.7,1.6c-0.4,0.2-0.8,0.4-1.3,0.5c0.6-0.5,1.1-1.3,1.5-2.1
		c1.5-3.6,0.6-9.7-2.8-15.5c-3.3-5.8-8.1-9.6-12-10.1c-0.7-0.1-1.4-0.1-2.1,0.1c0.2-0.2,0.5-0.4,0.8-0.5c0.6-0.3,1.2-0.5,1.9-0.6
		c4.1-0.5,9.7,3.6,13.5,10.1C725.7,101.6,726.5,108.3,724.2,111.8z"/>
	<line class="st1" x1="738.1" y1="107.6" x2="738.1" y2="107.6"/>
	<path class="st1" d="M747.7,101.8l-4.6,2.8l-2,1.2l-3.1,1.9c0-0.3,0-0.7-0.1-1c0-0.3,0-0.7-0.1-1c0-0.2,0-0.3-0.1-0.5
		c0-0.2,0-0.3-0.1-0.5c0-0.4-0.1-0.7-0.2-1.1c0,0,0-0.1,0-0.2c0-0.2-0.1-0.5-0.1-0.7c-0.1-0.4-0.2-0.8-0.3-1.2
		c-0.1-0.5-0.2-0.9-0.4-1.4c0-0.1,0-0.1-0.1-0.2c-0.1-0.4-0.2-0.8-0.4-1.2c-0.1-0.3-0.2-0.7-0.3-1c-0.1-0.3-0.2-0.6-0.3-0.9
		c-0.1-0.3-0.2-0.6-0.3-0.8c-0.1-0.4-0.3-0.8-0.5-1.1c-0.1-0.2-0.1-0.3-0.2-0.5c-0.1-0.2-0.1-0.3-0.2-0.5c-0.2-0.4-0.4-0.8-0.5-1.1
		c0-0.1-0.1-0.1-0.1-0.2c-0.2-0.4-0.4-0.8-0.6-1.2c-0.2-0.5-0.5-1-0.8-1.5c-0.2-0.4-0.5-0.8-0.7-1.2c-0.1-0.1-0.2-0.2-0.2-0.3
		c0,0-0.1-0.1-0.1-0.2c-0.2-0.4-0.5-0.7-0.7-1.1c-0.2-0.4-0.5-0.8-0.8-1.1c0-0.1-0.1-0.1-0.1-0.2c0,0,0-0.1,0-0.1
		c-0.3-0.4-0.6-0.8-0.9-1.2c-0.2-0.3-0.5-0.6-0.8-0.9c-0.3-0.3-0.6-0.7-0.9-1c0,0-0.1-0.1-0.1-0.1c-0.3-0.3-0.6-0.7-0.9-1v0
		c-0.2-0.2-0.4-0.4-0.6-0.6c-0.3-0.3-0.6-0.6-0.9-0.8c-0.2-0.2-0.5-0.5-0.7-0.7c-0.2-0.2-0.4-0.4-0.7-0.6c0,0,0,0,0,0
		c-0.2-0.2-0.4-0.4-0.7-0.5c-0.3-0.2-0.6-0.5-0.9-0.7c-0.4-0.3-0.7-0.5-1.1-0.8l2.5-1.6l2.2-1.5l3.5-2.3l0.8-0.6l0.1,0l0,0
		c6-3.4,14.8,0.7,19.7,9.2C754.6,88.6,753.7,98.3,747.7,101.8z"/>
	<g>
		<g>
			<line class="st1" x1="114.3" y1="265.4" x2="96.4" y2="302.1"/>
			<g>
				<polygon points="110.8,265.9 118.1,257.5 116,268.5 				"/>
			</g>
		</g>
	</g>
	<g>
		<g>
			<line class="st1" x1="206.2" y1="285.1" x2="257" y2="351.9"/>
			<g>
				<polygon points="205.1,288.4 200.8,278.1 209.7,284.9 				"/>
			</g>
		</g>
	</g>
	<text transform="matrix(1 0 0 1 76.0674 312.2178)"><tspan x="0" y="0" class="st4 st5"> </tspan><tspan x="4.4" y="0" class="st6 st5"> </tspan></text>
</g>
<g id="Layer_3">
	<text transform="matrix(1 0 0 1 662.4269 60.1668)" class="st7 st8 st9">透視圖</text>
	<text transform="matrix(1 0 0 1 415.3319 102.352)" class="st7 st10 st9">總長</text>
	<text transform="matrix(1 0 0 1 157.0357 462.5736)" class="st7 st10 st5"> </text>
	<text transform="matrix(1 0 0 1 281.5276 262.4557)" class="st7 st10 st9">總高</text>
	<text transform="matrix(1 0 0 1 247.7261 371.787)" class="st7 st10 st9">凹槽、孔 尺寸</text>
	<text transform="matrix(1 0 0 1 75.8911 64.7874)" class="st7 st10 st11">參考圖示</text>
	<text transform="matrix(1 0 0 1 290.8258 537.0613)" class="st10 st9">............................</text>
	<text transform="matrix(1 0 0 1 156.5428 461.2202)" class="st10 st9">.....................</text>
	<text transform="matrix(1 0 0 1 153.11 480.1566)" class="st10 st5">.............</text>
	<text transform="matrix(1 0 0 1 153.11 491.6605)" class="st10 st5">.............</text>
	<text transform="matrix(1 0 0 1 153.11 503.1362)" class="st10 st5">.............</text>
	<text transform="matrix(1 0 0 1 153.11 515.6675)" class="st10 st5">.............</text>
	<text transform="matrix(1 0 0 1 153.11 527.9369)" class="st10 st5">.............</text>
	<text transform="matrix(1 0 0 1 153.11 540.2079)" class="st10 st5">.............</text>
	<text transform="matrix(1 0 0 1 221.7745 480.1566)" class="st10 st5">.............</text>
	<text transform="matrix(1 0 0 1 221.7745 491.6605)" class="st10 st5">.............</text>
	<text transform="matrix(1 0 0 1 221.7745 503.1362)" class="st10 st5">.............</text>
	<text transform="matrix(1 0 0 1 221.7745 515.6675)" class="st10 st5">.............</text>
	<text transform="matrix(1 0 0 1 221.7745 527.9369)" class="st10 st5">.............</text>
	<text transform="matrix(1 0 0 1 221.7745 540.2079)" class="st10 st5">.............</text>
	<text transform="matrix(1 0 0 1 330.2422 461.2202)" class="st10 st9">.....................</text>
	<text transform="matrix(1 0 0 1 330.2422 487.9359)" class="st10 st9">.....................</text>
	<text transform="matrix(1 0 0 1 330.2422 512.0337)" class="st10 st9">.....................</text>
	<text transform="matrix(1 0 0 1 457.0018 487.9359)" class="st10 st9">.....................</text>
	<text transform="matrix(1 0 0 1 458.3454 524.0828)" class="st10 st9">.....................</text>
	<text transform="matrix(1 0 0 1 457.0018 459.6848)" class="st10 st9">.....................</text>
	<text transform="matrix(1 0 0 1 168.5643 102.3508)" class="st7 st10 st9">總寬</text>
	<text transform="matrix(1 0 0 1 627.6431 434.2421)" class="st7 st8 st9">公司名稱</text>
	<text transform="matrix(1 0 0 1 573.817 481.5002)" class="st7 st8 st9">料件名稱</text>
	<text transform="matrix(1 0 0 1 704.4498 481.5002)" class="st7 st8 st9">比例</text>
	<text transform="matrix(1 0 0 1 573.817 530.1071)" class="st7 st8 st9">通訊資訊</text>
</g>
</svg>
