<?xml version="1.0" encoding="utf-8"?>
<!-- Generator: Adobe Illustrator 27.0.0, SVG Export Plug-In . SVG Version: 6.00 Build 0)  -->
<svg version="1.1" id="Layer_1" xmlns="http://www.w3.org/2000/svg" xmlns:xlink="http://www.w3.org/1999/xlink" x="0px" y="0px"
	 viewBox="0 0 77.9 23.2" style="enable-background:new 0 0 77.9 23.2;" xml:space="preserve">
<style type="text/css">
	.st0{fill:url(#SVGID_1_);}
	.st1{fill:url(#SVGID_00000160171931416064269540000003617112522715974043_);}
	.st2{fill:url(#SVGID_00000064338940079821087020000012594497566118259624_);}
	.st3{fill:url(#SVGID_00000166637174338206547550000000800713785758622863_);}
	.st4{fill:url(#SVGID_00000166643562156572625160000004662776182549812659_);}
	.st5{fill:url(#SVGID_00000178890898282127499870000016193039232483027619_);}
	.st6{fill:url(#SVGID_00000044874382226066117100000007206530275662428092_);}
</style>
<g id="Layer_11_copy_2">
	<linearGradient id="SVGID_1_" gradientUnits="userSpaceOnUse" x1="4.8326" y1="9.4" x2="87.9046" y2="9.4">
		<stop  offset="0" style="stop-color:#FFFFFF"/>
		<stop  offset="0.3158" style="stop-color:#FDFDFD"/>
		<stop  offset="0.453" style="stop-color:#F6F6F6"/>
		<stop  offset="0.5555" style="stop-color:#E9E9E9"/>
		<stop  offset="0.6409" style="stop-color:#D7D7D7"/>
		<stop  offset="0.7156" style="stop-color:#C0C0C0"/>
		<stop  offset="0.7828" style="stop-color:#A3A3A3"/>
		<stop  offset="0.8444" style="stop-color:#818181"/>
		<stop  offset="0.9016" style="stop-color:#5A5A5A"/>
		<stop  offset="0.9533" style="stop-color:#2E2E2E"/>
		<stop  offset="1" style="stop-color:#000000"/>
	</linearGradient>
	<polygon class="st0" points="6.1,9.8 4.6,9.8 4.9,9 6.4,9 	"/>
	
		<linearGradient id="SVGID_00000143590589811357820470000010203485621932188301_" gradientUnits="userSpaceOnUse" x1="4.8326" y1="12.4" x2="87.9046" y2="12.4">
		<stop  offset="0" style="stop-color:#FFFFFF"/>
		<stop  offset="0.3158" style="stop-color:#FDFDFD"/>
		<stop  offset="0.453" style="stop-color:#F6F6F6"/>
		<stop  offset="0.5555" style="stop-color:#E9E9E9"/>
		<stop  offset="0.6409" style="stop-color:#D7D7D7"/>
		<stop  offset="0.7156" style="stop-color:#C0C0C0"/>
		<stop  offset="0.7828" style="stop-color:#A3A3A3"/>
		<stop  offset="0.8444" style="stop-color:#818181"/>
		<stop  offset="0.9016" style="stop-color:#5A5A5A"/>
		<stop  offset="0.9533" style="stop-color:#2E2E2E"/>
		<stop  offset="1" style="stop-color:#000000"/>
	</linearGradient>
	<polygon style="fill:url(#SVGID_00000143590589811357820470000010203485621932188301_);" points="8,12.8 4.3,12.8 4.6,12 8.3,12 	
		"/>
	
		<linearGradient id="SVGID_00000048492133300911777290000010084179772557998752_" gradientUnits="userSpaceOnUse" x1="4.8326" y1="13.85" x2="87.9046" y2="13.85">
		<stop  offset="0" style="stop-color:#FFFFFF"/>
		<stop  offset="0.3158" style="stop-color:#FDFDFD"/>
		<stop  offset="0.453" style="stop-color:#F6F6F6"/>
		<stop  offset="0.5555" style="stop-color:#E9E9E9"/>
		<stop  offset="0.6409" style="stop-color:#D7D7D7"/>
		<stop  offset="0.7156" style="stop-color:#C0C0C0"/>
		<stop  offset="0.7828" style="stop-color:#A3A3A3"/>
		<stop  offset="0.8444" style="stop-color:#818181"/>
		<stop  offset="0.9016" style="stop-color:#5A5A5A"/>
		<stop  offset="0.9533" style="stop-color:#2E2E2E"/>
		<stop  offset="1" style="stop-color:#000000"/>
	</linearGradient>
	<polygon style="fill:url(#SVGID_00000048492133300911777290000010084179772557998752_);" points="3,14.2 0,14.2 0.3,13.5 3.3,13.5 
			"/>
	
		<linearGradient id="SVGID_00000172424806239615188380000018402177842591115454_" gradientUnits="userSpaceOnUse" x1="4.8326" y1="15.4" x2="87.9046" y2="15.4">
		<stop  offset="0" style="stop-color:#FFFFFF"/>
		<stop  offset="0.3158" style="stop-color:#FDFDFD"/>
		<stop  offset="0.453" style="stop-color:#F6F6F6"/>
		<stop  offset="0.5555" style="stop-color:#E9E9E9"/>
		<stop  offset="0.6409" style="stop-color:#D7D7D7"/>
		<stop  offset="0.7156" style="stop-color:#C0C0C0"/>
		<stop  offset="0.7828" style="stop-color:#A3A3A3"/>
		<stop  offset="0.8444" style="stop-color:#818181"/>
		<stop  offset="0.9016" style="stop-color:#5A5A5A"/>
		<stop  offset="0.9533" style="stop-color:#2E2E2E"/>
		<stop  offset="1" style="stop-color:#000000"/>
	</linearGradient>
	<polygon style="fill:url(#SVGID_00000172424806239615188380000018402177842591115454_);" points="7.7,15.8 4,15.8 4.2,15 8,15 	"/>
	
		<linearGradient id="SVGID_00000083769938196607171410000008335639214846991790_" gradientUnits="userSpaceOnUse" x1="4.8326" y1="16.85" x2="87.9046" y2="16.85">
		<stop  offset="0" style="stop-color:#FFFFFF"/>
		<stop  offset="0.3158" style="stop-color:#FDFDFD"/>
		<stop  offset="0.453" style="stop-color:#F6F6F6"/>
		<stop  offset="0.5555" style="stop-color:#E9E9E9"/>
		<stop  offset="0.6409" style="stop-color:#D7D7D7"/>
		<stop  offset="0.7156" style="stop-color:#C0C0C0"/>
		<stop  offset="0.7828" style="stop-color:#A3A3A3"/>
		<stop  offset="0.8444" style="stop-color:#818181"/>
		<stop  offset="0.9016" style="stop-color:#5A5A5A"/>
		<stop  offset="0.9533" style="stop-color:#2E2E2E"/>
		<stop  offset="1" style="stop-color:#000000"/>
	</linearGradient>
	<polygon style="fill:url(#SVGID_00000083769938196607171410000008335639214846991790_);" points="6.4,17.2 1.2,17.2 1.4,16.5 
		6.7,16.5 	"/>
	
		<linearGradient id="SVGID_00000143594536457410669130000007029833112928869055_" gradientUnits="userSpaceOnUse" x1="4.8326" y1="11.65" x2="87.9046" y2="11.65">
		<stop  offset="0" style="stop-color:#FFFFFF"/>
		<stop  offset="0.3158" style="stop-color:#FDFDFD"/>
		<stop  offset="0.453" style="stop-color:#F6F6F6"/>
		<stop  offset="0.5555" style="stop-color:#E9E9E9"/>
		<stop  offset="0.6409" style="stop-color:#D7D7D7"/>
		<stop  offset="0.7156" style="stop-color:#C0C0C0"/>
		<stop  offset="0.7828" style="stop-color:#A3A3A3"/>
		<stop  offset="0.8444" style="stop-color:#818181"/>
		<stop  offset="0.9016" style="stop-color:#5A5A5A"/>
		<stop  offset="0.9533" style="stop-color:#2E2E2E"/>
		<stop  offset="1" style="stop-color:#000000"/>
	</linearGradient>
	<path style="fill:url(#SVGID_00000143594536457410669130000007029833112928869055_);" d="M34,5.2h-2.3L32,4.4h2.2L34,5.2z
		 M33.5,6.8h-2.2L31.5,6h2.3L33.5,6.8z M32.9,8.2h-2.3L31,7.5h2.2L32.9,8.2z M32.4,9.8h-2.3L30.4,9h2.3L32.4,9.8z M31.9,11.2h-2.3
		l0.3-0.8h2.3L31.9,11.2z M31.3,12.8H29l0.3-0.8h2.3L31.3,12.8z M29.8,18c0.1,0.3,0.2,0.5,0.4,0.8H27c0-0.3,0.1-0.5,0.2-0.8H29.8z
		 M27.7,16.5H30l-0.1,0.3c0,0.1-0.1,0.3-0.1,0.4h-2.3L27.7,16.5z M28.2,15h2.3l-0.3,0.8H28L28.2,15z M31,13.5l-0.3,0.8h-2.3l0.3-0.8
		H31z M48.5,15l-2,5.6c-0.6,1.6-2.1,2.6-3.8,2.6H30.9c-0.8,0-1.7-0.3-2.3-0.8h4.2c1.5,0,7.1-0.4,7.1-0.4s-5-0.4-6.8-0.4h-5.3
		c-0.2-0.2-0.3-0.5-0.5-0.8h7c2.2,0,7.6-0.4,7.6-0.4S36.2,20,34.5,20H27c0,0,0-0.2-0.1-0.5h15.5c0.8,0,1.6-0.5,1.9-1.3l1.1-3.2
		C45.4,15,48.5,15,48.5,15z M14.8,5.2h-7l0.3-0.8h7.5C15.2,4.7,15,5,14.8,5.2z M14,6.8H7.2L7.5,6h6.8c-0.1,0.1-0.1,0.2-0.2,0.4
		L14,6.8z M13.4,8.2H6.7L7,7.5h6.7L13.4,8.2z M12.9,9.8H8.4L8.7,9h4.5L12.9,9.8z M12.3,11.2h-6l0.3-0.8h6L12.3,11.2z M11.8,12.8h-3
		L9.1,12h3L11.8,12.8z M11.2,14.2H6l0.3-0.8h5.2L11.2,14.2z M10.7,15.8H9.2L9.5,15H11L10.7,15.8z M10.1,17.2H7.9l0.3-0.8h2.2
		L10.1,17.2z M9.7,18.8H3c0-0.3,0.1-0.5,0.2-0.8h6.7l-0.1,0.3C9.7,18.5,9.7,18.6,9.7,18.8z M10.1,20.2h-7C3,20,3,19.8,2.9,19.5h6.8
		C9.8,19.8,9.9,20,10.1,20.2z M4.6,22.5H21c-0.7,0.5-1.5,0.8-2.3,0.8H6.9C6.1,23.3,5.3,23,4.6,22.5z M22.3,21
		c-0.1,0.3-0.3,0.5-0.5,0.8h-18c-0.2-0.2-0.3-0.5-0.5-0.8H22.3z M22.9,19.5l-0.3,0.8h-3c0.3-0.2,0.6-0.5,0.8-0.8H22.9z M23.4,18
		l-0.3,0.8h-2.3c0.1-0.1,0.1-0.2,0.2-0.4l0.1-0.4H23.4z M23.9,16.5l-0.3,0.8h-2.2l0.3-0.8H23.9z M60.2,3.3L53,23.2h-3.8L55.9,5
		c0.2-0.5-0.1-1-0.6-1.2c-0.1,0-0.2-0.1-0.3-0.1H8.3C8.4,3.5,8.6,3.2,8.7,3h30.4c4.8,0,10.2-0.3,10.2-0.3s-4.1-0.4-8.4-0.4H9.2
		C9.4,2,9.7,1.7,9.9,1.5h29.2c5.9,0,12.2-0.4,12.2-0.4s-6.2-0.4-9.5-0.4H11C11.9,0.3,12.9,0,13.9,0h44c1.4,0,2.5,1.1,2.5,2.5
		C60.4,2.8,60.3,3,60.2,3.3z"/>
	<g>
		
			<linearGradient id="SVGID_00000134972036347544477800000003541166650798295699_" gradientUnits="userSpaceOnUse" x1="4.8326" y1="11.65" x2="87.9046" y2="11.65">
			<stop  offset="0" style="stop-color:#FFFFFF"/>
			<stop  offset="0.3158" style="stop-color:#FDFDFD"/>
			<stop  offset="0.453" style="stop-color:#F6F6F6"/>
			<stop  offset="0.5555" style="stop-color:#E9E9E9"/>
			<stop  offset="0.6409" style="stop-color:#D7D7D7"/>
			<stop  offset="0.7156" style="stop-color:#C0C0C0"/>
			<stop  offset="0.7828" style="stop-color:#A3A3A3"/>
			<stop  offset="0.8444" style="stop-color:#818181"/>
			<stop  offset="0.9016" style="stop-color:#5A5A5A"/>
			<stop  offset="0.9533" style="stop-color:#2E2E2E"/>
			<stop  offset="1" style="stop-color:#000000"/>
		</linearGradient>
		<path style="fill:url(#SVGID_00000134972036347544477800000003541166650798295699_);" d="M71.2,0L68,9h-7.5l-1.7,4.5h7.5l-3.6,9.8
			h4c1.7,0,3.2-1,3.8-2.6L77.9,0H71.2z M73.8,3l-0.4,1.1h-0.8L73.1,3H72l0.3-0.8h1.1l0.4-1.1h0.8l-0.4,1.1h1.1L75,3H73.8z"/>
	</g>
</g>
</svg>
