<svg xmlns="http://www.w3.org/2000/svg" viewBox="0 0 77.94095 23.25"><defs><style>.cls-1{fill:#1d1d1b;}</style></defs><g id="Layer_2" data-name="Layer 2"><g id="Layer_11_copy_2" data-name="Layer 11 copy 2"><polygon points="34.031 5.25 31.771 5.25 32.051 4.5 34.301 4.5 34.031 5.25"/><polygon points="33.481 6.75 31.231 6.75 31.501 6 33.761 6 33.481 6.75"/><polygon points="32.941 8.25 30.681 8.25 30.961 7.5 33.211 7.5 32.941 8.25"/><polygon points="32.401 9.75 30.141 9.75 30.411 9 32.671 9 32.401 9.75"/><polygon points="31.861 11.25 29.591 11.25 29.861 10.5 32.131 10.5 31.861 11.25"/><polygon points="31.311 12.75 29.051 12.75 29.321 12 31.581 12 31.311 12.75"/><path d="M29.79093,18a1.82183,1.82183,0,0,0,.37.75h-3.19a3.37593,3.37593,0,0,1,.17-.75Z"/><path d="M27.68094,16.5h2.28l-.12.32a2.06628,2.06628,0,0,0-.1.43h-2.33Z"/><polygon points="28.231 15 30.501 15 30.231 15.75 27.951 15.75 28.231 15"/><polygon points="31.041 13.5 30.771 14.25 28.501 14.25 28.771 13.5 31.041 13.5"/><path d="M48.48093,15l-2.04,5.62a4.00641,4.00641,0,0,1-3.76,2.63H30.941a3.95959,3.95959,0,0,1-2.34-.75h4.23c1.49,0,7.06-.38,7.06-.38s-4.97-.37-6.79-.37h-5.29a4.12023,4.12023,0,0,1-.47-.75h6.96c2.25,0,7.63-.38,7.63-.38s-5.7-.37-7.36-.37h-7.51a3.67045,3.67045,0,0,1-.12-.75h15.52a2.00789,2.00789,0,0,0,1.88-1.32L45.48093,15Z"/><path d="M14.751,5.25H7.781l.27-.75h7.49A3.74146,3.74146,0,0,0,14.751,5.25Z"/><path d="M13.971,6.75H7.23359l.273-.75H14.281a2.59333,2.59333,0,0,0-.17.38Z"/><polygon points="13.438 8.25 6.688 8.25 6.968 7.5 13.708 7.5 13.438 8.25"/><polygon points="12.892 9.75 8.392 9.75 8.662 9 13.165 9 12.892 9.75"/><polygon points="6.142 9.75 4.642 9.75 4.912 9 6.415 9 6.142 9.75"/><polygon points="12.346 11.249 6.346 11.25 6.619 10.5 12.619 10.5 12.346 11.249"/><polygon points="11.8 12.75 8.8 12.75 9.07 12 12.073 12 11.8 12.75"/><polygon points="8.009 12.75 4.3 12.75 4.573 11.999 8.288 12 8.009 12.75"/><polygon points="11.231 14.25 6.004 14.249 6.274 13.499 11.511 13.5 11.231 14.25"/><polygon points="3.003 14.25 0 14.25 0.27 13.5 3.283 13.5 3.003 14.25"/><polygon points="10.691 15.75 9.229 15.75 9.499 15 10.961 15 10.691 15.75"/><polygon points="7.705 15.75 3.958 15.75 4.228 15 7.975 15 7.705 15.75"/><polygon points="10.141 17.25 7.912 17.25 8.182 16.5 10.411 16.5 10.141 17.25"/><polygon points="6.412 17.25 1.159 17.25 1.429 16.5 6.682 16.5 6.412 17.25"/><path d="M9.651,18.75H2.971a3.37593,3.37593,0,0,1,.17-.75h6.72l-.11.31A1.85025,1.85025,0,0,0,9.651,18.75Z"/><path d="M10.071,20.25H3.061a3.67045,3.67045,0,0,1-.12-.75h6.76A2.02827,2.02827,0,0,0,10.071,20.25Z"/><path d="M4.601,22.5h16.41a3.9507,3.9507,0,0,1-2.33.75H6.941A3.95959,3.95959,0,0,1,4.601,22.5Z"/><path d="M22.281,21a3.68212,3.68212,0,0,1-.48.75H3.811a4.12023,4.12023,0,0,1-.47-.75Z"/><path d="M22.851,19.5l-.28.75h-2.99a3.74449,3.74449,0,0,0,.79-.75Z"/><path d="M23.391,18l-.27.75h-2.28c.06-.12.11-.25.16-.38l.13-.37Z"/><polygon points="23.931 16.5 23.661 17.25 21.411 17.25 21.681 16.5 23.931 16.5"/><path d="M60.23093,3.32l-7.25,19.93h-3.75l6.63-18.23a.94525.94525,0,0,0-.89-1.27H8.331A5.21622,5.21622,0,0,1,8.701,3h30.36c4.75,0,10.16-.33,10.16-.33s-4.07-.42-8.41-.42H9.211a6.37459,6.37459,0,0,1,.72-.75h29.18c5.92,0,12.17-.38,12.17-.38s-6.15-.37-9.5-.37h-30.79a5.99,5.99,0,0,1,2.9-.75h44.01A2.47548,2.47548,0,0,1,60.23093,3.32Z"/><path class="cls-1" d="M71.191,0l-3.25,9h-7.5l-1.66,4.5h7.5l-3.55,9.75h3.94891a4,4,0,0,0,3.75889-2.63225L77.941,0Zm2.65,3-.4,1.12h-.75l.4-1.12h-1.12l.27-.75h1.12l.42-1.13h.75l-.42,1.13h1.13l-.27.75Z"/></g></g></svg>