<?xml version="1.0" encoding="utf-8"?>
<!-- Generator: Adobe Illustrator 25.0.0, SVG Export Plug-In . SVG Version: 6.00 Build 0)  -->
<svg version="1.1" xmlns="http://www.w3.org/2000/svg" xmlns:xlink="http://www.w3.org/1999/xlink" x="0px" y="0px"
	 viewBox="0 0 50 50" style="enable-background:new 0 0 50 50;" xml:space="preserve">
<style type="text/css">
	.st0{display:none;}
	.st1{fill:#FFFFFF;}
</style>
<g id="Layer_2">
</g>
<g id="Layer_1">
	<g id="Layer_1_1_" class="st0">
	</g>
	<g id="Layer_2_1_" class="st0">
	</g>
	<path class="st1" d="M15.6,3.9l7.2,1.4C23.1,5.4,23.2,5.7,23,6l-3.8,4.2c-0.2,0.2-0.7,0.2-0.8-0.1l-3.4-5.6
		C14.8,4.2,15.2,3.8,15.6,3.9z"/>
	<path class="st1" d="M31.3,41.8L25.5,46c-0.2,0.2-0.6,0.2-0.9,0l-5.9-4.2c-0.1-0.1-0.2-0.3-0.2-0.5l4.2-22.7c0-0.3,0.4-0.5,0.7-0.5
		h3.4c0.4,0,0.6,0.2,0.7,0.5l4.1,22.7C31.6,41.5,31.5,41.7,31.3,41.8z"/>
	<path class="st1" d="M34.4,3.9l-7.2,1.4C26.9,5.4,26.8,5.7,27,6l3.8,4.2c0.2,0.2,0.7,0.2,0.8-0.1l3.4-5.6
		C35.2,4.2,34.8,3.8,34.4,3.9z"/>
	<path class="st1" d="M25,7"/>
	<path class="st1" d="M29,12.7l-1.6,2.4c-0.2,0.2-0.4,0.4-0.8,0.4h-3.4c-0.3,0-0.6-0.2-0.8-0.4L21,12.7c-0.2-0.3-0.2-0.7,0.1-0.9
		l3.2-3.6c0.4-0.4,1-0.4,1.4,0l3.2,3.6C29.2,12,29.2,12.4,29,12.7z"/>
</g>
</svg>
