<?xml version="1.0" encoding="utf-8"?>
<!-- Generator: Adobe Illustrator 25.0.0, SVG Export Plug-In . SVG Version: 6.00 Build 0)  -->
<svg version="1.1" xmlns="http://www.w3.org/2000/svg" xmlns:xlink="http://www.w3.org/1999/xlink" x="0px" y="0px"
	 viewBox="0 0 425.2 425.2" style="enable-background:new 0 0 425.2 425.2;" xml:space="preserve">
<style type="text/css">
	.st0{fill:none;stroke:#000000;stroke-width:10;stroke-miterlimit:10;}
	.st1{fill:none;stroke:#000000;stroke-width:8;stroke-miterlimit:10;}
	.st2{display:none;}
</style>
<g id="Layer_2">
	<g id="Processing_1_">
		<path d="M248.7,136.2l-9.6-1.9c-1.4-0.5-2.9-1.4-3.3-2.9c-0.5-1.4-1-2.4-1.4-3.8c-0.5-1.4-0.5-2.9,0.5-4.3l5.7-8.1
			c1.4-1.9,1-4.3-0.5-5.7l-5.7-5.7c-1.4-1.4-3.8-1.9-5.7-0.5l-8.1,5.7c-1.4,1-2.9,1-4.3,0.5c-1.4-0.5-2.4-1-3.8-1.4
			c-1.4-0.5-2.4-1.9-2.9-3.3l-1.9-9.6c-0.5-2.4-2.4-3.8-4.3-3.8h-8.6c-2.4,0-4.3,1.4-4.3,3.8l-1.9,9.6c-0.5,1.4-1.4,2.9-2.9,3.3
			c-1.4,0.5-2.4,1-3.8,1.4c-1.4,0.5-2.9,0.5-4.3-0.5l-8.1-5.7c-1.9-1.4-4.3-1-5.7,0.5l-5.7,5.7c-1.4,1.4-1.9,3.8-0.5,5.7l5.7,8.1
			c1,1.4,1,2.9,0.5,4.3s-1,2.4-1.4,3.8s-1.9,2.4-3.3,2.9l-9.6,1.9c-1.9,0.5-3.8,2.4-3.8,4.3v8.6c0,2.4,1.4,4.3,3.8,4.3l9.6,1.9
			c1.4,0.5,2.9,1.4,3.3,2.9s1,2.4,1.4,3.8c0.5,1.4,0.5,2.9-0.5,4.3l-5.7,8.1c-1.4,1.9-1,4.3,0.5,5.7l5.7,5.7
			c1.4,1.4,3.8,1.9,5.7,0.5l8.1-5.7c1.4-1,2.9-1,4.3-0.5c1.4,0.5,2.4,1,3.8,1.4c1.4,0.5,2.4,1.9,2.9,3.3l1.9,9.6
			c0.5,1.9,2.4,3.8,4.3,3.8h8.6c0.5,0,1.4,0,1.9-0.5c0-0.5,0-1.4,0-1.9v-6.2c0-2.9,1.4-5.3,3.8-6.7c2.9-1.4,6.2-2.4,9.6-3.3
			l-3.3-4.8c-2.4-3.3-1.9-7.7,1-10.5l4.3-4.3c2.9-2.9,7.2-3.3,10.5-1l4.3,2.9v-0.5c0.5-1.4,3.3-7.2,3.8-8.1c1.4-2.4,4.3-3.8,6.7-3.8
			h6.2c0.5,0,1,0,1.4,0c0-0.5,0-0.5,0-1V140C252.1,138.6,250.6,136.7,248.7,136.2z M210.9,157.3c-3.3,3.3-7.7,5.3-12,5.3
			c-9.6,0-17.2-7.7-17.2-17.2c0-9.6,7.7-17.2,17.2-17.2s17.2,7.7,17.2,17.2C215.7,149.6,213.8,153.9,210.9,157.3z"/>
		<path d="M283.6,188.4l-7.2-1.4c-1.4-0.5-2.4-1-2.9-2.4c-0.5-1-0.5-1.9-1-2.9c-0.5-1.4-0.5-2.9,0.5-3.8l3.8-5.7
			c0.5-1,0.5-2.4-0.5-3.3l-4.3-4.3c-1-1-2.4-1-3.3-0.5l-5.7,3.8c-1,1-2.4,1-3.8,0.5c-1-0.5-1.9-1-2.9-1c-1.4-0.5-2.4-1.4-2.4-2.9
			l-1.4-7.2c0-1-1.4-1.9-2.4-1.9h-6.2c-1,0-2.4,1-2.4,1.9l-1.4,7.2c-0.5,1.4-1,2.4-2.4,2.9c-1,0.5-1.9,0.5-2.9,1
			c-1.4,0.5-2.9,0.5-3.8-0.5l-5.7-3.8c-1-0.5-2.4-0.5-3.3,0.5l-4.3,4.3c-1,1-1,2.4-0.5,3.3l3.8,5.7c1,1,1,2.4,0.5,3.8
			c-0.5,1-1,1.9-1,2.9c-0.5,1.4-1.4,2.4-2.9,2.4l-7.2,1.4c-1,0-1.9,1.4-1.9,2.4v6.2c0,1,1,2.4,1.9,2.4l7.2,1.4
			c1.4,0.5,2.4,1,2.9,2.4c0.5,1,0.5,1.9,1,2.9c0.5,1.4,0.5,2.9-0.5,3.8l-2.4,5.3c-0.5,1-0.5,2.4,0.5,3.3l4.3,4.3c1,1,2.4,1,3.3,0.5
			l5.7-3.8c1-1,2.4-1,3.8-0.5c1,0.5,1.9,1,2.9,1c1.4,0.5,2.4,1.4,2.4,2.9l1.4,7.2c0,1,1.4,1.9,2.4,1.9h6.2c1,0,2.4-1,2.4-1.9
			l1.4-7.2c0.5-1.4,1-2.4,2.4-2.9c1-0.5,1.9-0.5,2.9-1c1.4-0.5,2.9-0.5,3.8,0.5l5.7,3.8c1,0.5,2.4,0.5,3.3-0.5l4.3-4.3
			c1-1,1-2.4,0.5-3.3l-3.8-5.7c-1-1-1-2.4-0.5-3.8c0.5-1,1-1.9,1-2.9c0.5-1.4,1.4-2.4,2.9-2.4l7.2-1.4c1,0,1.9-1.4,1.9-2.4v-6.2
			C286,189.3,285.1,188.4,283.6,188.4z M247.8,207.5c-7.7,0-13.9-6.2-13.9-13.9c0-7.7,6.2-13.9,13.9-13.9s13.9,6.2,13.9,13.9
			C262.1,201.3,255.9,207.5,247.8,207.5L247.8,207.5z"/>
	</g>
	<path class="st0" d="M318.6,251H108.1c-23,0-41.1,18.7-41.1,41.1v1.4c0,23,18.7,41.1,41.1,41.1h210c23,0,41.1-18.7,41.1-41.1v-1.4
		C359.7,269.2,341,251,318.6,251z"/>
	<circle class="st1" cx="179.9" cy="293.1" r="18.2"/>
	<circle class="st1" cx="108.6" cy="292.6" r="18.2"/>
	<circle class="st1" cx="251.1" cy="293.1" r="18.2"/>
	<circle class="st1" cx="322.4" cy="293.1" r="18.2"/>
</g>
<g id="Layer_4" class="st2">
</g>
</svg>
