<?xml version="1.0" encoding="utf-8"?>
<!-- Generator: Adobe Illustrator 25.0.0, SVG Export Plug-In . SVG Version: 6.00 Build 0)  -->
<svg version="1.1" xmlns="http://www.w3.org/2000/svg" xmlns:xlink="http://www.w3.org/1999/xlink" x="0px" y="0px"
	 viewBox="0 0 425.2 425.2" style="enable-background:new 0 0 425.2 425.2;" xml:space="preserve">
<style type="text/css">
	.st0{fill:none;stroke:#000000;stroke-width:10;stroke-miterlimit:10;}
	.st1{fill:none;stroke:#000000;stroke-width:10;stroke-linecap:round;stroke-miterlimit:10;}
	.st2{display:none;}
</style>
<g id="Layer_3_1_">
	<path class="st0" d="M264.9,272.6h-101v-155c0-7.3,5.9-13.2,13.2-13.2h152.2c7.3,0,13.2,5.9,13.2,13.2v141.8
		c0,7.3-5.9,13.2-13.2,13.2h-20.2"/>
	<path class="st0" d="M90.8,272.6H73c-6.6,0-11.9-5.3-11.9-11.9v-37.4c0-4.8,1.9-9.3,5.2-12.8l45.6-46.9c2.8-2.9,6.6-4.5,10.7-4.5
		h41.3v113.5h-29.7"/>
	<path class="st0" d="M101.1,174.7H128c3.3,0,5.9,2.6,5.9,5.9v27.8c0,3.3-2.6,5.9-5.9,5.9H61.1"/>
	<line class="st1" x1="163.9" y1="228.9" x2="293.5" y2="228.9"/>
	<line class="st1" x1="43.9" y1="295.8" x2="369.9" y2="295.8"/>
	<circle class="st0" cx="112.5" cy="271.3" r="21.7"/>
	<circle class="st0" cx="286.7" cy="271.3" r="21.7"/>
</g>
<g id="Layer_5" class="st2">
</g>
</svg>
